<svg width="59" height="53" viewBox="0 0 59 53" fill="none" xmlns="http://www.w3.org/2000/svg">
<path d="M16.0996 36.2977C18.0884 36.2977 19.7672 35.8028 21.1362 34.9409L29.6511 45.0462C29.1519 45.7883 28.9025 46.7105 28.9025 47.76C28.9025 50.6537 31.262 53 34.1884 53C37.115 53 39.5349 50.661 39.5349 47.76C39.5349 44.799 37.1074 42.46 34.1884 42.46C33.4398 42.46 32.6986 42.6474 32.0786 42.8948L23.4955 32.4147C23.4955 32.3547 23.5561 32.2273 23.6167 32.1672L48.4886 35.4958C49.0481 37.8347 51.1656 39.6264 53.7141 39.6264C56.6331 39.6264 59 37.22 59 34.3264C59 31.4327 56.6406 29.0263 53.7141 29.0263C51.4757 29.0263 49.5473 30.4432 48.7382 32.3548L24.5544 28.9065C24.615 28.5392 24.615 28.2318 24.615 27.917C24.615 26.5001 24.3654 25.2708 23.8664 24.1611L37.8564 14.4831C38.7261 15.0978 39.8451 15.4651 40.9644 15.4651C43.9513 15.4651 46.3108 13.1261 46.3108 10.2251C46.3108 7.26412 43.9514 4.92509 40.9644 4.92509C38.0454 4.92509 35.6785 7.26406 35.6785 10.2251C35.6785 10.8398 35.807 11.4546 35.9887 12.0092L22.0662 21.6348C20.6369 20.278 18.5876 19.4758 16.0996 19.4758C14.6098 19.4758 13.2412 19.7833 12.0616 20.338L8.20493 9.73791C9.69473 8.75593 10.6929 7.15174 10.6929 5.24C10.6929 2.34634 8.26543 0 5.34644 0C2.42745 0 0 2.33897 0 5.24C0 8.01359 2.17784 10.2926 4.90777 10.48L9.44506 22.377C8.26543 23.7938 7.64533 25.7055 7.64533 27.9245C7.64508 32.9692 11.0027 36.2981 16.0998 36.2981L16.0996 36.2977ZM16.0996 23.1713C18.9581 23.1713 20.8865 25.083 20.8865 27.9167C20.8865 30.7503 18.9581 32.602 16.0996 32.602C13.2412 32.602 11.3733 30.7503 11.3733 27.9167C11.3733 25.083 13.2412 23.1713 16.0996 23.1713Z" fill="white"/>
</svg>
