<svg width="166" height="235" viewBox="0 0 166 235" fill="none" xmlns="http://www.w3.org/2000/svg">
<path d="M15.1783 0H150.822C159.194 0.019582 165.98 6.80509 166 15.1869V219.813C165.98 228.195 159.194 234.98 150.822 235H15.1783C6.80586 234.98 0.0195535 228.195 0 219.813V15.1869C0.0195861 6.80509 6.80561 0.019552 15.1783 0ZM67.6367 184.387H98.3457C100.245 184.387 101.793 185.925 101.793 187.824V214.821C101.793 216.721 100.245 218.258 98.3457 218.258H67.6367C66.726 218.258 65.8545 217.896 65.2082 217.249C64.5717 216.613 64.2094 215.732 64.2094 214.821V187.824C64.2094 186.914 64.5717 186.042 65.2082 185.396C65.8545 184.75 66.726 184.387 67.6367 184.387ZM94.9088 191.271H71.0839V211.373H94.9088V191.271ZM19.7332 184.387H50.4422C51.3529 184.387 52.2244 184.75 52.8707 185.396C53.517 186.042 53.8793 186.914 53.8793 187.824V214.821C53.8793 215.732 53.517 216.613 52.8707 217.249C52.2244 217.896 51.3529 218.258 50.4422 218.258H19.7332C18.8225 218.258 17.9412 217.905 17.2949 217.259C16.6486 216.613 16.2863 215.732 16.2863 214.821V187.824C16.2863 186.914 16.6486 186.042 17.2949 185.396C17.9412 184.75 18.8225 184.387 19.7332 184.387ZM46.9953 191.271H23.1704V211.373H46.9953V191.271ZM67.6475 140.198H98.3465C100.246 140.198 101.793 141.735 101.793 143.635V170.631C101.793 172.531 100.246 174.068 98.3465 174.059H67.6375C66.7268 174.068 65.8553 173.706 65.209 173.06C64.5725 172.414 64.2101 171.542 64.2101 170.631V143.635C64.2101 142.724 64.5725 141.843 65.209 141.206C65.8553 140.56 66.7268 140.198 67.6375 140.198L67.6475 140.198ZM94.9196 147.081H71.0947V167.184H94.9196V147.081ZM19.744 140.198H50.453H50.4432C51.3539 140.198 52.2254 140.56 52.8717 141.206C53.518 141.843 53.8803 142.724 53.8803 143.635V170.631C53.8803 171.542 53.518 172.414 52.8717 173.06C52.2254 173.706 51.3539 174.068 50.4432 174.059H19.7342C18.8235 174.068 17.9422 173.706 17.2959 173.06C16.6496 172.414 16.2873 171.542 16.2873 170.631V143.635C16.2873 142.714 16.6496 141.843 17.2959 141.197C17.9422 140.55 18.8235 140.198 19.7342 140.198L19.744 140.198ZM47.0061 147.081H23.1811V167.184H47.0061V147.081ZM115.574 95.9881H146.283H146.273C148.173 95.9881 149.71 97.5352 149.72 99.4348V126.421C149.71 128.321 148.173 129.868 146.273 129.868H115.564C113.664 129.858 112.127 128.321 112.127 126.421V99.4348C112.127 97.5352 113.664 95.9881 115.564 95.9881H115.574ZM142.846 102.881H119.021V122.984H142.846V102.881ZM67.66 95.9881H98.349C100.258 95.9881 101.796 97.5352 101.796 99.4348V126.421C101.796 128.321 100.258 129.868 98.349 129.868H67.64C65.7403 129.858 64.2028 128.321 64.2126 126.421V99.4348C64.2028 97.5352 65.7402 95.9881 67.64 95.9881H67.66ZM94.9321 102.881H71.1072V122.984H94.9321V102.881ZM19.7372 95.9881H50.4462C52.3459 95.9881 53.8834 97.5352 53.8834 99.4348V126.421C53.8834 128.321 52.346 129.858 50.4462 129.868H19.7372C18.8265 129.868 17.9452 129.506 17.2989 128.86C16.6526 128.213 16.2903 127.332 16.2903 126.421V99.4348C16.2903 98.5241 16.6526 97.6429 17.2989 96.9966C17.9452 96.3504 18.8265 95.9881 19.7372 95.9881ZM46.9993 102.881H23.1744V122.984H46.9993V102.881ZM19.7372 16.745H146.276C148.176 16.745 149.713 18.2823 149.723 20.1819V80.793C149.713 82.6925 148.176 84.2298 146.276 84.2298H19.7372C18.8265 84.2298 17.9452 83.8676 17.2989 83.2311C16.6526 82.5848 16.2903 81.7036 16.2903 80.793V20.1819C16.2903 19.2713 16.6526 18.39 17.2989 17.7438C17.9452 17.0975 18.8265 16.745 19.7372 16.745ZM142.836 23.6285H23.1741V77.3463H142.836V23.6285ZM150.827 6.89457H15.1835C10.6105 6.91416 6.90889 10.6155 6.88934 15.1881V219.814C6.90892 224.387 10.6105 228.088 15.1835 228.108H150.827C155.4 228.088 159.092 224.387 159.111 219.814V15.1881C159.092 10.6155 155.4 6.91412 150.827 6.89457Z" fill="white"/>
<path d="M146.275 141.236H115.586L115.566 141.236C113.666 141.246 112.129 142.783 112.129 144.683V214.819C112.129 215.73 112.491 216.611 113.138 217.247C113.784 217.893 114.655 218.256 115.566 218.256H146.275C148.175 218.256 149.712 216.718 149.722 214.819V144.682C149.712 142.783 148.175 141.246 146.275 141.236Z" fill="#1E66D0"/>
</svg>
