<svg width="83" height="83" viewBox="0 0 83 83" fill="none" xmlns="http://www.w3.org/2000/svg">
<path d="M75.2273 8.93555H62.1099C62.0777 9.20318 62.061 9.47245 62.06 9.74201C61.9802 10.8997 62.3294 12.0463 63.0411 12.9629C63.0831 12.9656 63.1217 12.979 63.1635 12.9829C63.6434 12.8821 64.1383 12.8754 64.6208 12.9631C67.0037 13.4053 68.5139 16.0335 67.9944 18.8333C67.4749 21.6333 65.1221 23.5446 62.7392 23.1024C62.0238 22.9601 61.3636 22.6172 60.8357 22.1139C56.1347 21.0311 52.6767 15.9891 52.6767 9.74204C52.6767 9.46936 52.6953 9.20348 52.7082 8.93557H26.2299C26.1977 9.2032 26.181 9.47248 26.18 9.74204C26.1002 10.8998 26.4494 12.0463 27.1611 12.963C27.2031 12.9657 27.2417 12.979 27.2835 12.9829C27.7634 12.8821 28.2583 12.8754 28.7408 12.9631C31.1237 13.4053 32.6339 16.0335 32.1144 18.8333C31.5949 21.6333 29.2421 23.5447 26.8592 23.1024C26.1438 22.9601 25.4836 22.6173 24.9557 22.1139C20.2547 21.0311 16.7967 15.9891 16.7967 9.74206C16.7967 9.56855 16.8116 9.40065 16.8167 9.22911C14.9379 9.78729 13.3448 11.045 12.3659 12.7431C11.3327 13.7676 10.6144 15.0665 10.2959 16.4862L0.123182 66.1969C-0.630721 69.8811 2.15432 72.8786 6.33184 72.8786H11.2794V74.9787C11.2505 77.0203 12.0323 78.99 13.4534 80.4561C14.8745 81.9222 16.8189 82.7649 18.8604 82.7996H75.2273C77.2677 82.7639 79.2107 81.9205 80.6302 80.4544C82.0498 78.9883 82.8301 77.0192 82.8 74.9787V16.7565C82.83 14.716 82.0498 12.7468 80.6302 11.2807C79.2107 9.81465 77.2677 8.97128 75.2273 8.93555ZM7.09116 69.1684C5.23342 69.1684 3.99493 67.8353 4.33024 66.1969L12.2146 27.6688H75.3209L67.4367 66.1969C67.1888 67.0583 66.666 67.815 65.948 68.3515C65.2299 68.888 64.3561 69.1749 63.4597 69.1684H7.09116ZM78.5929 74.9787C78.6063 75.8856 78.2596 76.7608 77.6286 77.4124C76.9977 78.064 76.1341 78.4388 75.2273 78.4547H18.8604C17.9525 78.4399 17.0874 78.0657 16.455 77.4141C15.8225 76.7625 15.4743 75.8867 15.4866 74.9787V72.8786H62.7004C66.8779 72.8786 70.8898 69.8811 71.6439 66.1969L78.5929 32.2386V74.9787Z" fill="white"/>
<path d="M62.7319 19.4849C63.2199 19.4849 63.6879 19.291 64.033 18.9459C64.3781 18.6009 64.5719 18.1329 64.5719 17.6449C64.5719 17.1569 64.3781 16.6889 64.033 16.3438C63.6879 15.9987 63.2199 15.8049 62.7319 15.8049C61.0644 15.8049 59.2073 13.3148 59.2073 9.74221C59.2073 6.16958 61.0644 3.68 62.7319 3.68C63.735 3.68 64.8044 4.58641 65.4991 6.08378H69.4228C68.3732 2.48614 65.8087 0 62.7319 0C58.6916 0 55.5273 4.27926 55.5273 9.74221C55.5273 15.2052 58.6916 19.4849 62.7319 19.4849Z" fill="white"/>
<path d="M26.853 19.4849C27.341 19.4849 27.809 19.291 28.1541 18.9459C28.4992 18.6009 28.693 18.1329 28.693 17.6449C28.693 17.1569 28.4992 16.6889 28.1541 16.3438C27.809 15.9987 27.341 15.8049 26.853 15.8049C25.1855 15.8049 23.3284 13.3148 23.3284 9.74221C23.3284 6.16958 25.1855 3.68 26.853 3.68C27.8561 3.68 28.9255 4.58641 29.6202 6.08378H33.5439C32.4943 2.48614 29.9298 0 26.853 0C22.8127 0 19.6484 4.27926 19.6484 9.74221C19.6484 15.2052 22.8127 19.4849 26.853 19.4849Z" fill="white"/>
</svg>
