<svg width="56" height="49" viewBox="0 0 56 49" fill="none" xmlns="http://www.w3.org/2000/svg">
<path d="M52.8232 4.9356H43.7108V3.63265C43.5783 -1.1982 36.098 -1.20581 35.9655 3.63265V4.9356H20.0352V3.63265C19.8852 -1.20327 12.4479 -1.21849 12.2898 3.63265V4.9356H3.17749C1.42247 4.93814 0.00249601 6.38082 0 8.16375V45.7744C0.00249985 47.5548 1.42253 49 3.17749 49H52.8225C54.5775 49 55.9975 47.5548 56 45.7744V8.16375C55.9975 6.38075 54.5775 4.93814 52.8225 4.9356H52.8232ZM37.9655 3.63265C38.048 1.48137 41.628 1.48137 41.7105 3.63265V4.9356H37.9655V3.63265ZM14.2905 3.63265C14.373 1.48137 17.953 1.48391 18.0355 3.63265V4.9356H14.2905V3.63265ZM3.17813 6.9675H12.2905V10.0179C12.2905 10.5792 12.738 11.0338 13.2905 11.0338C13.843 11.0338 14.2905 10.5792 14.2905 10.0179V6.9675H35.9655V10.0179C35.9655 10.5792 36.413 11.0338 36.9655 11.0338C37.518 11.0338 37.9655 10.5792 37.9655 10.0179V6.9675H52.8232C53.4731 6.9675 54.0006 7.50342 54.0006 8.16375V14.5947H2.00039V8.16375C2.00039 7.5034 2.52815 6.9675 3.17813 6.9675ZM52.8232 46.9683H3.17813C2.52814 46.9683 2.00065 46.4324 2.00065 45.7746V16.6271H54.0009V45.7746C54.0009 46.4324 53.4731 46.9683 52.8232 46.9683Z" fill="white"/>
<path d="M12.114 22.9639H6.00391C5.45141 22.9639 5.00391 23.4185 5.00391 23.9798C5.00391 24.5411 5.45141 24.9958 6.00391 24.9958H12.114C12.6665 24.9958 13.114 24.5411 13.114 23.9798C13.114 23.4185 12.6665 22.9639 12.114 22.9639Z" fill="white"/>
<path d="M24.7429 22.9639H18.6328C18.0803 22.9639 17.6328 23.4185 17.6328 23.9798C17.6328 24.5411 18.0803 24.9958 18.6328 24.9958H24.7429C25.2954 24.9958 25.7429 24.5411 25.7429 23.9798C25.7429 23.4185 25.2954 22.9639 24.7429 22.9639Z" fill="white"/>
<path d="M37.3679 22.9639H31.2578C30.7053 22.9639 30.2578 23.4185 30.2578 23.9798C30.2578 24.5411 30.7053 24.9958 31.2578 24.9958H37.3679C37.9204 24.9958 38.3679 24.5411 38.3679 23.9798C38.3679 23.4185 37.9204 22.9639 37.3679 22.9639Z" fill="white"/>
<path d="M43.8867 24.9958H49.9968C50.5493 24.9958 50.9968 24.5411 50.9968 23.9798C50.9968 23.4185 50.5493 22.9639 49.9968 22.9639H43.8867C43.3342 22.9639 42.8867 23.4185 42.8867 23.9798C42.8867 24.5411 43.3342 24.9958 43.8867 24.9958Z" fill="white"/>
<path d="M12.114 30.9824H6.00391C5.45141 30.9824 5.00391 31.4371 5.00391 31.9984C5.00391 32.5597 5.45141 33.0143 6.00391 33.0143H12.114C12.6665 33.0143 13.114 32.5597 13.114 31.9984C13.114 31.4371 12.6665 30.9824 12.114 30.9824Z" fill="white"/>
<path d="M24.7429 30.9824H18.6328C18.0803 30.9824 17.6328 31.4371 17.6328 31.9984C17.6328 32.5597 18.0803 33.0143 18.6328 33.0143H24.7429C25.2954 33.0143 25.7429 32.5597 25.7429 31.9984C25.7429 31.4371 25.2954 30.9824 24.7429 30.9824Z" fill="white"/>
<path d="M37.3679 30.9824H31.2578C30.7053 30.9824 30.2578 31.4371 30.2578 31.9984C30.2578 32.5597 30.7053 33.0143 31.2578 33.0143H37.3679C37.9204 33.0143 38.3679 32.5597 38.3679 31.9984C38.3679 31.4371 37.9204 30.9824 37.3679 30.9824Z" fill="white"/>
<path d="M43.8867 33.0143H49.9968C50.5493 33.0143 50.9968 32.5597 50.9968 31.9984C50.9968 31.4371 50.5493 30.9824 49.9968 30.9824H43.8867C43.3342 30.9824 42.8867 31.4371 42.8867 31.9984C42.8867 32.5597 43.3342 33.0143 43.8867 33.0143Z" fill="white"/>
<path d="M12.114 38.998H6.00391C5.45141 38.998 5.00391 39.4527 5.00391 40.014C5.00391 40.5753 5.45141 41.0299 6.00391 41.0299H12.114C12.6665 41.0299 13.114 40.5753 13.114 40.014C13.114 39.4527 12.6665 38.998 12.114 38.998Z" fill="white"/>
<path d="M24.7429 38.998H18.6328C18.0803 38.998 17.6328 39.4527 17.6328 40.014C17.6328 40.5753 18.0803 41.0299 18.6328 41.0299H24.7429C25.2954 41.0299 25.7429 40.5753 25.7429 40.014C25.7429 39.4527 25.2954 38.998 24.7429 38.998Z" fill="white"/>
<path d="M37.3679 38.998H31.2578C30.7053 38.998 30.2578 39.4527 30.2578 40.014C30.2578 40.5753 30.7053 41.0299 31.2578 41.0299H37.3679C37.9204 41.0299 38.3679 40.5753 38.3679 40.014C38.3679 39.4527 37.9204 38.998 37.3679 38.998Z" fill="white"/>
<path d="M49.91 36.2271L45.37 39.2648L44.265 37.4793C43.97 37.0043 43.3525 36.8621 42.885 37.1618C42.4175 37.459 42.2775 38.0863 42.5725 38.5612L44.2225 41.2231H44.22C44.365 41.4542 44.5925 41.6167 44.855 41.6726C45.1175 41.731 45.3925 41.6803 45.6175 41.5329L51.0125 37.9263L51.01 37.9238C51.455 37.6088 51.57 36.9916 51.2725 36.5319C50.975 36.0722 50.3726 35.9376 49.91 36.2271Z" fill="white"/>
</svg>
