<svg width="58" height="39" viewBox="0 0 58 39" fill="none" xmlns="http://www.w3.org/2000/svg">
<path fill-rule="evenodd" clip-rule="evenodd" d="M19 39C29.486 39 38 31.0941 38 21.3571C38 11.6201 29.486 3.71429 19 3.71429C8.514 3.71429 0 11.6201 0 21.3571C0 31.0941 8.514 39 19 39ZM19 37.1429C9.618 37.1429 2 30.069 2 21.3571C2 12.6453 9.618 5.57143 19 5.57143C28.382 5.57143 36 12.6453 36 21.3571C36 30.069 28.382 37.1429 19 37.1429ZM19 35.5643C18.504 35.5643 18.1 35.1891 18.1 34.7286C18.1 34.268 18.504 33.8929 19 33.8929C19.496 33.8929 19.9 34.268 19.9 34.7286C19.9 35.1891 19.496 35.5643 19 35.5643ZM26.704 4.21571C30.008 1.58414 34.306 0 39 0C49.486 0 58 7.90586 58 17.6429C58 27.3799 49.486 35.2857 39 35.2857C36.974 35.2857 35.02 34.9904 33.19 34.4389C33.71 33.9541 34.2 33.4416 34.66 32.9049C36.044 33.2484 37.5 33.4286 39 33.4286C48.382 33.4286 56 26.3547 56 17.6429C56 8.931 48.382 1.85714 39 1.85714C35.12 1.85714 31.542 3.06614 28.688 5.109C28.048 4.77843 27.386 4.47943 26.704 4.21571ZM22.96 35.0796C22.48 35.2003 21.986 34.9347 21.858 34.489C21.73 34.0433 22.014 33.5846 22.494 33.4657C22.974 33.3469 23.468 33.6106 23.596 34.0563C23.724 34.502 23.44 34.9607 22.96 35.0796ZM15.506 33.4657C15.986 33.5846 16.27 34.0433 16.142 34.489C16.014 34.9347 15.52 35.2003 15.04 35.0796C14.56 34.9607 14.276 34.502 14.404 34.0563C14.532 33.6106 15.026 33.3469 15.506 33.4657ZM26.65 33.6607C26.22 33.891 25.668 33.7536 25.42 33.3543C25.172 32.955 25.32 32.4443 25.75 32.214C26.18 31.9819 26.732 32.1193 26.98 32.5186C27.228 32.9179 27.08 33.4304 26.65 33.6607ZM12.25 32.214C12.68 32.4443 12.828 32.955 12.58 33.3543C12.332 33.7536 11.78 33.891 11.35 33.6607C10.92 33.4304 10.772 32.9179 11.02 32.5186C11.268 32.1193 11.82 31.9819 12.25 32.214ZM19.8 12.9387C19.536 12.9183 19.27 12.9071 19 12.9071C18.73 12.9071 18.464 12.9183 18.2 12.9387V11.3286C18.2 10.816 17.752 10.4 17.2 10.4C16.648 10.4 16.2 10.816 16.2 11.3286V13.3157C12.546 14.4133 9.9 17.6001 9.9 21.3571C9.9 24.7984 12.12 27.7606 15.3 29.0791V31.3857C15.3 31.8983 15.748 32.3143 16.3 32.3143C16.852 32.3143 17.3 31.8983 17.3 31.3857V29.6604C17.818 29.7514 18.354 29.8016 18.9 29.8071V31.3857C18.9 31.8983 19.348 32.3143 19.9 32.3143C20.452 32.3143 20.9 31.8983 20.9 31.3857V29.6233C22.478 29.3113 23.906 28.6186 25.068 27.6529C25.478 27.3111 25.514 26.7243 25.144 26.3417C24.776 25.961 24.144 25.9276 23.732 26.2693C22.476 27.3149 20.818 27.95 19 27.95C15.082 27.95 11.9 24.9953 11.9 21.3571C11.9 17.719 15.082 14.7643 19 14.7643C20.818 14.7643 22.476 15.3994 23.732 16.445C24.144 16.7867 24.776 16.7533 25.144 16.3726C25.514 15.99 25.478 15.4031 25.068 15.0614C24.132 14.2833 23.022 13.6816 21.8 13.3157V11.3286C21.8 10.816 21.352 10.4 20.8 10.4C20.248 10.4 19.8 10.816 19.8 11.3286V12.9387ZM39 31.85C38.504 31.85 38.1 31.4749 38.1 31.0143C38.1 30.5537 38.504 30.1786 39 30.1786C39.496 30.1786 39.9 30.5537 39.9 31.0143C39.9 31.4749 39.496 31.85 39 31.85ZM9.454 30.2213C9.806 30.5481 9.806 31.0774 9.454 31.4024C9.102 31.7293 8.532 31.7293 8.182 31.4024C7.83 31.0774 7.83 30.5481 8.182 30.2213C8.532 29.8944 9.102 29.8944 9.454 30.2213ZM29.818 31.4024C29.468 31.7293 28.898 31.7293 28.546 31.4024C28.194 31.0774 28.194 30.5481 28.546 30.2213C28.898 29.8944 29.468 29.8944 29.818 30.2213C30.17 30.5481 30.17 31.0774 29.818 31.4024ZM42.96 31.3653C42.48 31.486 41.986 31.2204 41.858 30.7747C41.73 30.329 42.014 29.8703 42.494 29.7514C42.974 29.6326 43.468 29.8963 43.596 30.342C43.724 30.7877 43.44 31.2464 42.96 31.3653ZM46.65 29.9464C46.22 30.1767 45.668 30.0393 45.42 29.64C45.172 29.2407 45.32 28.73 45.75 28.4997C46.18 28.2676 46.732 28.405 46.98 28.8043C47.228 29.2036 47.08 29.7161 46.65 29.9464ZM32.25 28.4607C32.002 28.86 31.45 28.9974 31.02 28.7671C30.59 28.5369 30.442 28.0243 30.692 27.625C30.94 27.2257 31.49 27.0883 31.92 27.3186C32.35 27.5489 32.498 28.0614 32.25 28.4607ZM7.308 27.625C7.558 28.0243 7.41 28.5369 6.98 28.7671C6.55 28.9974 5.998 28.86 5.75 28.4607C5.502 28.0614 5.65 27.5489 6.08 27.3186C6.51 27.0883 7.06 27.2257 7.308 27.625ZM49.818 27.6881C49.468 28.015 48.898 28.015 48.546 27.6881C48.194 27.3631 48.194 26.8339 48.546 26.507C48.898 26.1801 49.468 26.1801 49.818 26.507C50.17 26.8339 50.17 27.3631 49.818 27.6881ZM33.778 25.0343C33.65 25.48 33.156 25.7437 32.676 25.6249C32.196 25.506 31.912 25.0473 32.04 24.6016C32.168 24.1559 32.662 23.8921 33.142 24.011C33.622 24.1299 33.908 24.5886 33.778 25.0343ZM5.96 24.6016C6.088 25.0473 5.804 25.506 5.324 25.6249C4.844 25.7437 4.35 25.48 4.222 25.0343C4.092 24.5886 4.378 24.1299 4.858 24.011C5.338 23.8921 5.832 24.1559 5.96 24.6016ZM52.25 24.7464C52.002 25.1457 51.45 25.2831 51.02 25.0529C50.59 24.8226 50.442 24.31 50.692 23.9107C50.94 23.5114 51.49 23.374 51.92 23.6043C52.35 23.8346 52.498 24.3471 52.25 24.7464ZM34.3 21.3571C34.3 21.8177 33.896 22.1929 33.4 22.1929C32.904 22.1929 32.5 21.8177 32.5 21.3571C32.5 20.8966 32.904 20.5214 33.4 20.5214C33.896 20.5214 34.3 20.8966 34.3 21.3571ZM5.5 21.3571C5.5 21.8177 5.096 22.1929 4.6 22.1929C4.104 22.1929 3.7 21.8177 3.7 21.3571C3.7 20.8966 4.104 20.5214 4.6 20.5214C5.096 20.5214 5.5 20.8966 5.5 21.3571ZM53.778 21.32C53.65 21.7657 53.156 22.0294 52.676 21.9106C52.196 21.7917 51.912 21.333 52.04 20.8873C52.168 20.4416 52.662 20.1779 53.142 20.2967C53.622 20.4156 53.908 20.8743 53.778 21.32ZM33.778 17.68C33.908 18.1257 33.622 18.5844 33.142 18.7033C32.662 18.8221 32.168 18.5584 32.04 18.1127C31.912 17.667 32.196 17.2083 32.676 17.0894C33.156 16.9706 33.65 17.2343 33.778 17.68ZM5.96 18.1127C5.832 18.5584 5.338 18.8221 4.858 18.7033C4.378 18.5844 4.092 18.1257 4.222 17.68C4.35 17.2343 4.844 16.9706 5.324 17.0894C5.804 17.2083 6.088 17.667 5.96 18.1127ZM54.3 17.6429C54.3 18.1034 53.896 18.4786 53.4 18.4786C52.904 18.4786 52.5 18.1034 52.5 17.6429C52.5 17.1823 52.904 16.8071 53.4 16.8071C53.896 16.8071 54.3 17.1823 54.3 17.6429ZM7.308 15.0893C7.06 15.4886 6.51 15.626 6.08 15.3957C5.65 15.1654 5.502 14.6529 5.75 14.2536C5.998 13.8543 6.55 13.7169 6.98 13.9471C7.41 14.1774 7.558 14.69 7.308 15.0893ZM32.25 14.2536C32.498 14.6529 32.35 15.1654 31.92 15.3957C31.49 15.626 30.94 15.4886 30.692 15.0893C30.442 14.69 30.59 14.1774 31.02 13.9471C31.45 13.7169 32.002 13.8543 32.25 14.2536ZM53.778 13.9657C53.908 14.4114 53.622 14.8701 53.142 14.989C52.662 15.1079 52.168 14.8441 52.04 14.3984C51.912 13.9527 52.196 13.494 52.676 13.3751C53.156 13.2563 53.65 13.52 53.778 13.9657ZM9.454 12.493C9.102 12.8199 8.532 12.8199 8.182 12.493C7.83 12.1661 7.83 11.6369 8.182 11.3119C8.532 10.985 9.102 10.985 9.454 11.3119C9.806 11.6369 9.806 12.1661 9.454 12.493ZM29.818 11.3119C30.17 11.6369 30.17 12.1661 29.818 12.493C29.468 12.8199 28.898 12.8199 28.546 12.493C28.194 12.1661 28.194 11.6369 28.546 11.3119C28.898 10.985 29.468 10.985 29.818 11.3119ZM52.25 10.5393C52.498 10.9386 52.35 11.4511 51.92 11.6814C51.49 11.9117 50.94 11.7743 50.692 11.375C50.442 10.9757 50.59 10.4631 51.02 10.2329C51.45 10.0026 52.002 10.14 52.25 10.5393ZM12.25 10.5003C11.82 10.7324 11.268 10.595 11.02 10.1957C10.772 9.79643 10.92 9.28386 11.35 9.05357C11.78 8.82329 12.332 8.96071 12.58 9.36C12.828 9.75928 12.68 10.27 12.25 10.5003ZM26.65 9.05357C27.08 9.28386 27.228 9.79643 26.98 10.1957C26.732 10.595 26.18 10.7324 25.75 10.5003C25.32 10.27 25.172 9.75928 25.42 9.36C25.668 8.96071 26.22 8.82329 26.65 9.05357ZM22.96 7.63471C23.44 7.75357 23.724 8.21229 23.596 8.658C23.468 9.10371 22.974 9.36743 22.494 9.24857C22.014 9.12971 21.73 8.671 21.858 8.22529C21.986 7.77957 22.48 7.514 22.96 7.63471ZM15.506 9.24857C15.026 9.36743 14.532 9.10371 14.404 8.658C14.276 8.21229 14.56 7.75357 15.04 7.63471C15.52 7.514 16.014 7.77957 16.142 8.22529C16.27 8.671 15.986 9.12971 15.506 9.24857ZM49.818 7.59757C50.17 7.92257 50.17 8.45186 49.818 8.77871C49.468 9.10557 48.898 9.10557 48.546 8.77871C48.194 8.45186 48.194 7.92257 48.546 7.59757C48.898 7.27071 49.468 7.27071 49.818 7.59757ZM19 8.82143C18.504 8.82143 18.1 8.44629 18.1 7.98571C18.1 7.52514 18.504 7.15 19 7.15C19.496 7.15 19.9 7.52514 19.9 7.98571C19.9 8.44629 19.496 8.82143 19 8.82143ZM46.65 5.33929C47.08 5.56957 47.228 6.08214 46.98 6.48143C46.732 6.88071 46.18 7.01814 45.75 6.786C45.32 6.55571 45.172 6.045 45.42 5.64571C45.668 5.24643 46.22 5.109 46.65 5.33929ZM32.25 6.786C31.82 7.01814 31.268 6.88071 31.02 6.48143C30.772 6.08214 30.92 5.56957 31.35 5.33929C31.78 5.109 32.332 5.24643 32.58 5.64571C32.828 6.045 32.68 6.55571 32.25 6.786ZM42.96 3.92043C43.44 4.03929 43.724 4.498 43.596 4.94371C43.468 5.38943 42.974 5.65314 42.494 5.53428C42.014 5.41543 41.73 4.95671 41.858 4.511C41.986 4.06529 42.48 3.79971 42.96 3.92043ZM35.506 5.53428C35.026 5.65314 34.532 5.38943 34.404 4.94371C34.276 4.498 34.56 4.03929 35.04 3.92043C35.52 3.79971 36.014 4.06529 36.142 4.511C36.27 4.95671 35.986 5.41543 35.506 5.53428ZM39 5.10714C38.504 5.10714 38.1 4.732 38.1 4.27143C38.1 3.81086 38.504 3.43571 39 3.43571C39.496 3.43571 39.9 3.81086 39.9 4.27143C39.9 4.732 39.496 5.10714 39 5.10714Z" fill="white"/>
</svg>
