<svg width="54" height="66" viewBox="0 0 54 66" fill="none" xmlns="http://www.w3.org/2000/svg">
<path d="M33.4292 12.6924C33.4292 5.69379 27.6614 0 20.572 0C13.4826 0 7.71484 5.69379 7.71484 12.6924C7.71484 19.6909 13.4826 25.3847 20.572 25.3847C27.6614 25.3847 33.4292 19.6909 33.4292 12.6924ZM12.8577 12.6924C12.8577 8.49288 16.318 5.07694 20.572 5.07694C24.826 5.07694 28.2863 8.49288 28.2863 12.6924C28.2863 16.8918 24.826 20.3078 20.572 20.3078C16.318 20.3078 12.8577 16.8918 12.8577 12.6924Z" fill="white"/>
<path d="M23.1429 55.8468C23.1429 57.2489 21.9926 58.3853 20.5715 58.3853H2.57143C1.15029 58.3853 0 57.2489 0 55.8468V48.2314C0 37.0342 9.22887 27.9236 20.5715 27.9236C30.7415 27.9236 39.4955 35.4078 40.9346 45.3333C41.1352 46.7218 40.1589 48.0071 38.7524 48.2051C37.3389 48.3989 36.0429 47.4377 35.8415 46.0525C34.7649 38.6114 28.2 33.0005 20.5715 33.0005C12.0634 33.0005 5.14287 39.8324 5.14287 48.2314V53.3083H20.5715C21.9926 53.3083 23.1429 54.4447 23.1429 55.8468Z" fill="white"/>
<path d="M53.6078 44.4988L40.7506 64.8065C39.8797 66.1875 37.9246 66.4134 36.7529 65.2567L29.0386 57.6413C28.034 56.6496 28.034 55.0436 29.0386 54.0519C30.0432 53.0602 31.67 53.0602 32.6746 54.0519L38.1037 59.4106L49.2483 41.8097C50.0018 40.62 51.5841 40.257 52.7918 41.0016C53.9943 41.7445 54.3612 43.3108 53.6078 44.4988Z" fill="white"/>
</svg>
