<svg width="96" height="96" viewBox="0 0 96 96" fill="none" xmlns="http://www.w3.org/2000/svg">
<g clip-path="url(#clip0_287_258)">
<path d="M48 4L12 20V44C12 66.2 27.36 86.96 48 92C68.64 86.96 84 66.2 84 44V20L48 4Z" fill="white"/>
<g clip-path="url(#clip1_287_258)">
<path d="M56.4333 47.2833C57.4167 46.1333 58 44.6333 58 43C58 39.9 55.8833 37.2833 53 36.55V33H49.6667V36.3333H46.3333V33H43V36.3333H38V39.6667H41.3333V56.3333H38V59.6667H43V63H46.3333V59.6667H49.6667V63H53V59.6667C56.6833 59.6667 59.6667 56.6833 59.6667 53C59.6667 50.5833 58.3667 48.45 56.4333 47.2833ZM44.6667 39.6667H51.3333C53.1667 39.6667 54.6667 41.1667 54.6667 43C54.6667 44.8333 53.1667 46.3333 51.3333 46.3333H44.6667V39.6667ZM53 56.3333H44.6667V49.6667H53C54.8333 49.6667 56.3333 51.1667 56.3333 53C56.3333 54.8333 54.8333 56.3333 53 56.3333Z" fill="black"/>
</g>
</g>
<defs>
<clipPath id="clip0_287_258">
<rect width="96" height="96" fill="white"/>
</clipPath>
<clipPath id="clip1_287_258">
<rect width="40" height="40" fill="white" transform="translate(28 28)"/>
</clipPath>
</defs>
</svg>
