<svg width="45" height="45" viewBox="0 0 45 45" fill="none" xmlns="http://www.w3.org/2000/svg">
<path d="M45 22.5C45 34.9264 34.9264 45 22.5 45C10.0736 45 0 34.9264 0 22.5C0 10.0736 10.0736 0 22.5 0C34.9264 0 45 10.0736 45 22.5Z" fill="#F5AC37"/>
<path d="M21.2153 10.0009H14.6835V20.6849H12V23.3002H14.6835V33.9842H22.2945C22.2945 33.9842 33 34.9303 33 22.1914C33 9.66343 22.7626 10.0009 21.2153 10.0009ZM22.1232 29.5491H18.9714V23.3002H23.6933V20.6849H18.9714V14.436H21.9747C23.1166 14.436 28.752 14.912 28.7578 22.2697C28.7635 29.6274 22.9282 29.5491 22.1232 29.5491Z" fill="white"/>
</svg>
