<svg width="66" height="67" viewBox="0 0 66 67" fill="none" xmlns="http://www.w3.org/2000/svg">
<path d="M44.8657 45.7389L44.8633 45.7414L44.8662 45.7384L44.8657 45.7389Z" fill="white"/>
<path d="M44.4219 46.2404C44.4776 46.1709 44.5373 46.1032 44.5966 46.036C44.5378 46.1041 44.4776 46.1709 44.4219 46.2404Z" fill="white"/>
<path d="M45.4961 45.1975C46.3452 44.5505 47.3422 44.1449 48.4029 44.0212C47.3417 44.1445 46.3456 44.55 45.4961 45.1975Z" fill="white"/>
<path d="M44.2431 43.3405C44.2431 43.3436 44.2426 43.3468 44.2422 43.3499C44.3621 43.2616 44.4815 43.1729 44.6054 43.0918C44.4855 43.1711 44.3648 43.2486 44.2484 43.3356C44.2471 43.3374 44.2453 43.3392 44.2431 43.3405Z" fill="white"/>
<path d="M43.7344 47.3363C43.7789 47.2431 43.8271 47.1513 43.877 47.0603C43.8262 47.1508 43.7798 47.2431 43.7344 47.3363Z" fill="white"/>
<path d="M50.1172 44.0696C50.1689 44.0785 50.2215 44.0826 50.2727 44.0929C50.2215 44.0821 50.1689 44.0785 50.1172 44.0696Z" fill="white"/>
<path d="M51.832 42.2126C52.0727 42.2977 52.3063 42.3999 52.538 42.507C52.3067 42.3999 52.0727 42.2977 51.832 42.2117V42.2126Z" fill="white"/>
<path d="M42.3008 54.6227C42.4394 54.8279 42.5856 55.0287 42.7434 55.2223C42.5856 55.0287 42.4394 54.8275 42.3008 54.6227Z" fill="white"/>
<path d="M48.5938 58.2251V58.2269C48.7341 58.2345 48.8723 58.2421 49.0118 58.2457C48.8719 58.2417 48.7328 58.2336 48.5938 58.2251Z" fill="white"/>
<path d="M43.1602 49.2654C43.1838 49.0687 43.2163 48.8738 43.2591 48.6815C43.2168 48.8738 43.1838 49.0682 43.1602 49.2654Z" fill="white"/>
<path d="M43.4766 47.9422C43.5407 47.7647 43.6121 47.5909 43.6927 47.421C43.6125 47.5913 43.5407 47.7647 43.4766 47.9422Z" fill="white"/>
<path d="M51.832 57.7733C51.9813 57.72 52.124 57.6523 52.2697 57.5909C52.124 57.6519 51.9813 57.7205 51.832 57.7733Z" fill="white"/>
<path d="M44.7578 42.9888C44.9896 42.8441 45.2289 42.7132 45.4727 42.5931C45.4353 42.6115 45.3965 42.6272 45.3591 42.646C45.1536 42.7509 44.9539 42.8656 44.7578 42.9888Z" fill="white"/>
<path d="M40.8945 49.8108C40.8981 49.6441 40.9052 49.4779 40.9186 49.313C40.9164 49.339 40.9119 49.3645 40.9101 49.3905C40.9008 49.5272 40.8981 49.6692 40.8945 49.8108Z" fill="white"/>
<path d="M49.6022 60.1179C49.6022 60.7363 50.1014 61.2382 50.7165 61.2382C51.1016 61.2382 51.4407 61.0415 51.6409 60.743C51.4407 61.0406 51.1016 61.2364 50.7174 61.2364C50.1019 61.2364 49.6031 60.735 49.6031 60.1161V58.2251C49.4672 58.2332 49.3317 58.2412 49.1953 58.2453C49.3321 58.2417 49.469 58.2345 49.6022 58.2273V60.1179Z" fill="white"/>
<path d="M41.0859 48.1972C41.0975 48.1448 41.1122 48.0932 41.1247 48.0413C41.1216 48.0431 41.1189 48.0448 41.1158 48.0466C41.1154 48.048 41.1154 48.0489 41.1149 48.0502C41.1029 48.0986 41.0962 48.1488 41.0859 48.1972Z" fill="white"/>
<path d="M46.3646 60.1179C46.3646 60.7363 46.8638 61.2382 47.4789 61.2382C47.9406 61.2382 48.3368 60.9555 48.5057 60.5526C48.3364 60.9546 47.9406 61.2364 47.4793 61.2364C46.8638 61.2364 46.3651 60.735 46.3651 60.1161V57.7734C45.6328 57.514 44.9451 57.1425 44.3086 56.6836C44.9455 57.1434 45.6332 57.5157 46.3642 57.7743L46.3646 60.1179Z" fill="white"/>
<path d="M54.3285 46.0466C53.9773 46.1148 53.6002 46.0126 53.3279 45.7388C52.5082 44.9152 51.4921 44.3644 50.3867 44.1211C51.4925 44.3644 52.5083 44.916 53.3257 45.7379C53.5993 46.0126 53.9768 46.1152 54.3285 46.0466Z" fill="white"/>
<path d="M55.0201 44.2981C55.3125 44.7095 55.2929 45.2705 54.9648 45.6635C55.2947 45.2723 55.3143 44.7081 55.0201 44.2981Z" fill="white"/>
<path d="M50.7158 38.7473C50.1007 38.7473 49.6016 39.2492 49.6016 39.8676V41.7609H49.6025V39.8694C49.6025 39.2505 50.1012 38.7491 50.7167 38.7491C51.1013 38.7491 51.4401 38.9449 51.6406 39.2429C51.4405 38.944 51.1009 38.7473 50.7158 38.7473Z" fill="white"/>
<path d="M49.0625 41.738C49.075 41.738 49.087 41.7362 49.0999 41.7362C49.108 41.7362 49.116 41.7376 49.1245 41.7376C49.116 41.7376 49.1084 41.7362 49.0999 41.7362C49.087 41.7362 49.0745 41.738 49.0625 41.738Z" fill="white"/>
<path d="M53.3265 54.2476C52.1989 55.3813 50.6969 56.0087 49.0968 56.0087C47.5012 56.0087 45.9947 55.3813 44.8671 54.2476C43.735 53.1094 43.1155 51.5993 43.1155 49.995C43.1155 49.7692 43.1284 49.5451 43.1529 49.3237C43.1289 49.5447 43.1133 49.7674 43.1133 49.9932C43.1133 51.6001 43.7355 53.1107 44.8662 54.2472C45.9961 55.3836 47.499 56.0096 49.0972 56.0096C50.6955 56.0096 52.1984 55.384 53.3278 54.2472C53.6398 53.9335 54.0891 53.8488 54.4795 53.9846C54.0891 53.8479 53.6394 53.933 53.3265 54.2476Z" fill="white"/>
<path d="M54.9609 54.314C55.2863 54.6958 55.3193 55.2434 55.0496 55.6547C55.3211 55.2447 55.2881 54.6944 54.9609 54.314Z" fill="white"/>
<path d="M47.4792 38.7473C46.8641 38.7473 46.365 39.2492 46.365 39.8676V42.2112C46.1127 42.3035 45.8649 42.4093 45.6211 42.5227C45.8649 42.4088 46.1118 42.3022 46.3654 42.2126V39.8698C46.3654 39.251 46.8641 38.7496 47.4797 38.7496C47.941 38.7496 48.3367 39.0314 48.5061 39.4334C48.3372 39.0301 47.941 38.7473 47.4792 38.7473Z" fill="white"/>
<path d="M51.8205 33.2087C51.4065 33.1415 50.992 33.0877 50.569 33.0518L47.3426 24.5408C46.1646 21.4408 43.7467 18.9286 40.7074 17.6493L26.343 11.5962L22.4462 8.79994L23.7584 6.95416C24.2593 6.24973 24.0975 5.27015 23.3965 4.76647L17.1718 0.292511C16.8353 0.0505299 16.4172 -0.0471588 16.009 0.0214025C15.6007 0.0895157 15.2366 0.318053 14.9959 0.656379L0.290936 21.3404C0.0502577 21.6787 -0.0469048 22.099 0.0212872 22.5095C0.0894793 22.92 0.316341 23.2861 0.652844 23.5281L6.87749 28.0011C7.15248 28.1983 7.46938 28.2933 7.78315 28.2933C8.26985 28.2933 8.74898 28.0652 9.05339 27.6368L10.9151 25.0181L13.6601 26.9911C14.384 27.51 14.9406 28.2216 15.2713 29.0506L17.1651 33.7854C17.7174 35.171 18.6493 36.3625 19.8594 37.23L32.5578 46.3424L34.3718 47.6464C34.3749 47.6464 34.3749 47.6464 34.3749 47.6464C34.3758 47.6469 34.3763 47.6473 34.3772 47.6482C34.3874 47.6558 34.399 47.663 34.4097 47.6702C34.428 47.6827 34.4458 47.6953 34.4654 47.7092C34.5323 47.7553 34.6013 47.7948 34.6691 47.8378C34.7426 47.8848 34.8153 47.9341 34.8906 47.978C34.9387 48.0063 34.9887 48.0305 35.0372 48.0574C35.1518 48.1201 35.2672 48.1806 35.3844 48.2362C35.3889 48.2379 35.3929 48.2406 35.3969 48.2424C35.3969 48.242 35.3969 48.242 35.3969 48.2415C36.2277 48.6309 37.1334 48.8366 38.068 48.8366C39.147 48.8366 40.1913 48.5534 41.1161 48.0462C41.1193 48.0444 41.1219 48.0426 41.1251 48.0408C41.1126 48.0928 41.0979 48.1443 41.0863 48.1967C41.06 48.3164 41.0368 48.4369 41.0154 48.5583C40.9945 48.6784 40.9775 48.7999 40.9619 48.9213C40.9454 49.0513 40.9289 49.1808 40.9183 49.3121C40.9049 49.477 40.8977 49.6432 40.8942 49.8099C40.8928 49.8709 40.8853 49.9309 40.8853 49.9923C40.8853 51.4877 41.2868 52.9176 42.0231 54.1728C42.1011 54.3058 42.1747 54.4412 42.2603 54.5702C42.2723 54.5882 42.2865 54.6043 42.2986 54.6218C42.4372 54.827 42.5834 55.0278 42.7412 55.2213C42.9132 55.432 43.0964 55.6354 43.2907 55.8303C43.6076 56.1489 43.9521 56.4259 44.3091 56.6831C44.9456 57.142 45.6333 57.5134 46.3656 57.7729V60.1156C46.3656 60.7345 46.8643 61.2359 47.4798 61.2359C47.9411 61.2359 48.3369 60.9541 48.5063 60.5521C48.5629 60.4181 48.5941 60.2702 48.5941 60.1156V58.2264V58.2246C48.7332 58.2331 48.8722 58.2416 49.0122 58.2452C49.0407 58.2461 49.0688 58.2492 49.0977 58.2492C49.1298 58.2492 49.1615 58.2457 49.1936 58.2448C49.3299 58.2407 49.4659 58.2331 49.6014 58.2246V60.1156C49.6014 60.7345 50.1001 61.2359 50.7156 61.2359C51.1003 61.2359 51.439 61.0401 51.6391 60.7425C51.7595 60.5637 51.8299 60.3478 51.8299 60.1156V57.7733V57.7729C51.9792 57.72 52.1218 57.6515 52.2676 57.5905C53.2387 57.1827 54.1377 56.6015 54.9043 55.8308C54.9587 55.7761 55.0064 55.7165 55.0474 55.6542C55.3166 55.2433 55.284 54.6957 54.9587 54.3135C54.94 54.2915 54.9248 54.2673 54.9043 54.2462C54.7808 54.1221 54.6347 54.0374 54.48 53.9837C54.0896 53.8479 53.6399 53.933 53.3283 54.2462C52.1989 55.3827 50.696 56.0087 49.0977 56.0087C47.4995 56.0087 45.9966 55.3831 44.8667 54.2462C43.7364 53.1098 43.1138 51.5992 43.1138 49.9923C43.1138 49.7669 43.1289 49.5437 43.1534 49.3228C43.1557 49.3031 43.1597 49.2843 43.1619 49.2646C43.1855 49.0674 43.2185 48.8729 43.2609 48.6807C43.2689 48.6435 43.2796 48.6067 43.2885 48.5695C43.3308 48.3934 43.3803 48.22 43.4382 48.0493C43.4507 48.013 43.4636 47.9771 43.477 47.9408C43.5408 47.7634 43.613 47.59 43.6932 47.4197C43.7066 47.3915 43.719 47.3632 43.7328 47.335C43.7783 47.2422 43.8247 47.1499 43.8755 47.059C43.9298 46.9613 43.9878 46.8654 44.0475 46.7704C44.0765 46.7251 44.1023 46.6781 44.1326 46.6333C44.2236 46.4979 44.3216 46.3671 44.4241 46.2389C44.4798 46.169 44.54 46.1022 44.5988 46.0346C44.6858 45.9351 44.7709 45.8343 44.8649 45.7397C44.8658 45.7388 44.8663 45.7379 44.8672 45.7375C44.8672 45.7375 44.8676 45.7375 44.8676 45.737C45.0646 45.539 45.2768 45.3624 45.4947 45.1961C46.3442 44.5482 47.3403 44.1431 48.4016 44.0199C48.6315 43.993 48.8633 43.9755 49.0982 43.9755C49.4445 43.9755 49.7846 44.0104 50.1193 44.0678C50.171 44.0768 50.2236 44.0808 50.2748 44.0911C50.3132 44.0987 50.3502 44.1113 50.388 44.1198C51.4934 44.3631 52.5096 44.9138 53.3292 45.7375C53.6011 46.0108 53.9786 46.1134 54.3298 46.0453C54.5406 46.0041 54.7416 45.9019 54.9052 45.7375C54.9284 45.7142 54.9458 45.6868 54.9667 45.6617C55.2947 45.2687 55.3144 44.7077 55.022 44.2963C54.9868 44.2466 54.9498 44.1978 54.9056 44.1529C54.2095 43.453 53.4059 42.9063 52.5376 42.5052C52.3059 42.3981 52.0723 42.296 51.8317 42.2108V42.2117V39.8694C51.8317 39.6373 51.7612 39.4218 51.6413 39.243C51.4412 38.945 51.102 38.7491 50.7174 38.7491C50.1019 38.7491 49.6032 39.2506 49.6032 39.8694V41.7609C49.6027 41.7609 49.6027 41.7609 49.6023 41.7609C49.4431 41.7511 49.284 41.739 49.1236 41.7376C49.1156 41.7376 49.1075 41.7363 49.0991 41.7363C49.0866 41.7363 49.0741 41.7381 49.0616 41.7381C48.9052 41.7399 48.7505 41.7515 48.5954 41.7609V39.8694C48.5954 39.7144 48.5642 39.567 48.5076 39.433C48.3383 39.031 47.9425 38.7491 47.4812 38.7491C46.8657 38.7491 46.3669 39.2506 46.3669 39.8694V42.2122C46.1133 42.3018 45.8664 42.4084 45.6226 42.5223C45.5727 42.5456 45.5223 42.568 45.4729 42.5926C45.2286 42.7127 44.9897 42.8436 44.758 42.9883C44.7063 43.0206 44.6577 43.0582 44.6064 43.0918C44.4825 43.1729 44.3631 43.2616 44.2432 43.3499C44.2432 43.3468 44.2436 43.3437 44.2441 43.3405C44.3568 41.5243 43.5697 39.6915 41.9911 38.5609L41.6461 38.3131C41.6465 38.3131 41.6465 38.3127 41.647 38.3122C42.2634 37.9143 42.9145 37.5666 43.5938 37.2686C43.6134 37.2601 43.633 37.2515 43.6526 37.243C43.8563 37.1548 44.0631 37.0714 44.2717 36.9921C44.3042 36.98 44.3368 36.9679 44.3693 36.9558C44.6064 36.8684 44.8453 36.7882 45.0873 36.7143C45.1043 36.7089 45.1212 36.7035 45.1386 36.6986C45.3913 36.6228 45.6471 36.5534 45.9079 36.4924C46.1539 36.4297 46.4008 36.3804 46.6544 36.3374C46.6829 36.3325 46.711 36.3262 46.7395 36.3213C46.822 36.3065 46.9044 36.2935 46.9865 36.2818C47.1781 36.2505 47.3698 36.2281 47.5659 36.2057C47.6336 36.198 47.7045 36.1922 47.7745 36.1855C48.2331 36.1429 48.6971 36.1201 49.1673 36.1232C49.2239 36.1232 49.2791 36.1205 49.3362 36.1263C49.403 36.1322 49.4694 36.1335 49.5354 36.1308C50.2008 36.1496 50.8533 36.2204 51.4925 36.3311C57.9551 37.4828 62.8801 43.1693 62.8801 49.9941C62.8801 57.6389 56.6893 63.8632 49.0857 63.8632C41.4776 63.8632 35.2868 57.6389 35.2868 49.9941C35.2868 49.8014 35.2913 49.6087 35.3002 49.4205C34.7921 49.2189 34.3063 48.959 33.8517 48.6408C33.8071 48.6139 33.767 48.587 33.7269 48.5557L33.6511 48.5019L32.3408 47.5608C32.2249 48.354 32.1669 49.1696 32.1669 49.9941C32.1669 59.3686 39.7572 67 49.0857 67C58.4097 67 66 59.3686 66 49.9941C65.9982 41.5525 59.8476 34.5261 51.8205 33.2087ZM7.42258 24.5377L3.73619 21.8884L16.6267 3.75688L20.3131 6.40612L7.42258 24.5377ZM38.0676 45.7003C37.3981 45.7003 36.7572 45.4964 36.2143 45.1101C36.1907 45.0935 36.1675 45.0779 36.143 45.0626L21.6712 34.6771C20.9473 34.1582 20.3907 33.4466 20.0604 32.6176L18.1666 27.8824C17.6139 26.4968 16.682 25.3057 15.4733 24.4386L12.7389 22.4732L20.634 11.3533L24.6725 14.2512C24.767 14.3189 24.8686 14.3763 24.976 14.4211L39.5023 20.5423C41.758 21.4919 43.5532 23.3574 44.4277 25.6589L47.2423 33.0841C45.9511 33.223 44.6902 33.5094 43.4703 33.9422L42.3654 31.2831C41.9264 30.2193 41.2026 29.3065 40.276 28.6455L37.7306 26.8168C36.1542 25.6849 34.0451 25.5746 32.3595 26.5367L32.187 26.6349C30.6698 27.5114 29.7071 29.1443 29.675 30.8969C29.6746 30.9063 29.6746 30.9161 29.6746 30.9255V30.9923C29.6746 32.6104 30.4555 34.1367 31.7631 35.0737L40.1797 41.1152C41.2093 41.8523 41.4486 43.2953 40.7164 44.3295C40.1062 45.1885 39.1163 45.7003 38.0676 45.7003ZM33.5758 32.5217C33.0869 32.1713 32.7949 31.5995 32.7949 30.9932V30.943C32.811 30.2915 33.1729 29.6838 33.7336 29.3598L33.8985 29.2662C34.5327 28.9036 35.3256 28.9458 35.9166 29.3701L38.466 31.2016C38.9179 31.5238 39.2696 31.9683 39.4849 32.4899L40.6361 35.2597C40.6352 35.2601 40.6339 35.2606 40.633 35.2615C40.0491 35.602 39.492 35.974 38.9527 36.3818L33.5758 32.5217Z" fill="white"/>
</svg>
