<svg width="55" height="55" viewBox="0 0 55 55" fill="none" xmlns="http://www.w3.org/2000/svg">
<path d="M15.1016 21.9113V20.9381H16.0748C18.2256 20.9381 19.9676 19.1961 19.9676 17.0453C19.9676 14.8945 18.2256 13.1524 16.0748 13.1524H15.1016V9.25956H16.0748C17.1453 9.25956 18.0212 10.1354 18.0212 11.206C18.0212 11.7413 18.4591 12.1792 18.9944 12.1792C19.5297 12.1792 19.9676 11.7413 19.9676 11.206C19.9676 9.0552 18.2256 7.31313 16.0748 7.31313H15.1016V6.33991C15.1016 5.80464 14.6636 5.3667 14.1283 5.3667C13.5931 5.3667 13.1551 5.80464 13.1551 6.33991V7.31313H12.1819C10.0311 7.31313 8.28906 9.0552 8.28906 11.206C8.28906 13.3568 10.0311 15.0988 12.1819 15.0988H13.1551V18.9917H12.1819C11.1114 18.9917 10.2355 18.1158 10.2355 17.0453C10.2355 16.51 9.79755 16.0721 9.26228 16.0721C8.72701 16.0721 8.28906 16.51 8.28906 17.0453C8.28906 19.1961 10.0311 20.9381 12.1819 20.9381H13.1551V21.9113C13.1551 22.4466 13.5931 22.8846 14.1283 22.8846C14.6636 22.8846 15.1016 22.4466 15.1016 21.9113ZM12.1819 13.1527C11.1114 13.1527 10.2355 12.2769 10.2355 11.2063C10.2355 10.1357 11.1114 9.25987 12.1819 9.25987H13.1551V13.1527H12.1819ZM15.1016 15.0992H16.0748C17.1453 15.0992 18.0212 15.975 18.0212 17.0456C18.0212 18.1161 17.1453 18.992 16.0748 18.992H15.1016V15.0992Z" fill="white"/>
<path d="M27.75 14.125C27.75 6.6121 21.6382 0.5 14.125 0.5C6.61179 0.5 0.5 6.61179 0.5 14.125C0.5 21.6382 6.61179 27.75 14.125 27.75C21.6382 27.75 27.75 21.6382 27.75 14.125ZM2.44643 14.125C2.44643 7.68217 7.68229 2.44643 14.125 2.44643C20.5677 2.44643 25.8036 7.68229 25.8036 14.125C25.8036 20.5677 20.5677 25.8036 14.125 25.8036C7.68229 25.8036 2.44643 20.5677 2.44643 14.125Z" fill="white"/>
<path d="M41.375 27.75C33.8621 27.75 27.75 33.8618 27.75 41.375C27.75 48.8882 33.8618 55 41.375 55C48.8882 55 55 48.8882 55 41.375C55 33.8618 48.8882 27.75 41.375 27.75ZM41.375 53.0536C34.9322 53.0536 29.6964 47.8177 29.6964 41.375C29.6964 34.9323 34.9323 29.6964 41.375 29.6964C47.8177 29.6964 53.0536 34.9323 53.0536 41.375C53.0536 47.8177 47.8177 53.0536 41.375 53.0536Z" fill="white"/>
<path d="M40.3965 19.9637V14.1244C40.3965 13.5891 39.9585 13.1512 39.4232 13.1512H30.6646C30.1293 13.1512 29.6914 13.5891 29.6914 14.1244C29.6914 14.6596 30.1293 15.0976 30.6646 15.0976H38.4503V18.9904H36.5039C36.1146 18.9904 35.7545 19.224 35.6085 19.5938C35.4626 19.9637 35.5404 20.3724 35.8227 20.6546L40.6887 25.5207C40.8834 25.7153 41.1267 25.8029 41.3797 25.8029C41.6328 25.8029 41.8761 25.7056 42.0707 25.5207L46.9368 20.6546C47.219 20.3724 47.2969 19.9539 47.1509 19.5938C47.0049 19.2338 46.6448 18.9904 46.2555 18.9904H44.3091V14.1244C44.3091 11.4383 42.1291 9.2583 39.443 9.2583H30.6844C30.1492 9.2583 29.7112 9.69624 29.7112 10.2315C29.7112 10.7668 30.1492 11.2047 30.6844 11.2047H39.443C41.0488 11.2047 42.3627 12.5186 42.3627 14.1244V19.9637C42.3627 20.4989 42.8006 20.9369 43.3359 20.9369H43.9101L41.3895 23.4575L38.8688 20.9369H39.443C39.9783 20.9369 40.4162 20.4989 40.4162 19.9637H40.3965Z" fill="white"/>
<path d="M15.1019 35.536V41.3753C15.1019 41.9106 15.5399 42.3485 16.0751 42.3485H24.8337C25.369 42.3485 25.807 41.9106 25.807 41.3753C25.807 40.8401 25.369 40.4021 24.8337 40.4021H17.048V36.5093H18.9945C19.3837 36.5093 19.7438 36.2757 19.8898 35.9059C20.0358 35.536 19.9579 35.1273 19.6757 34.8451L14.8096 29.979C14.4301 29.5994 13.8169 29.5994 13.4374 29.979L8.57136 34.8451C8.28913 35.1273 8.21127 35.5458 8.35725 35.9059C8.50323 36.2659 8.86332 36.5093 9.25261 36.5093H11.199V41.3753C11.199 44.0614 13.379 46.2414 16.0651 46.2414H24.8237C25.359 46.2414 25.7969 45.8035 25.7969 45.2682C25.7969 44.7329 25.359 44.295 24.8237 44.295H16.0651C14.4593 44.295 13.1455 42.9811 13.1455 41.3753V35.536C13.1455 35.0008 12.7075 34.5628 12.1722 34.5628H11.598L14.1187 32.0422L16.6393 34.5628H16.0651C15.5299 34.5628 15.0919 35.0008 15.0919 35.536H15.1019Z" fill="white"/>
<path d="M42.3449 35.5353C43.5321 35.5353 44.6611 36.0413 45.5273 36.9659C45.8971 37.3552 46.5102 37.3747 46.8995 37.0146C47.2888 36.6448 47.3082 36.0316 46.9482 35.6424C45.7122 34.3188 44.0772 33.5889 42.3449 33.5889C39.4934 33.5889 37.0506 35.6034 36.0384 38.4549H34.5592C34.0239 38.4549 33.5859 38.8929 33.5859 39.4282C33.5859 39.9634 34.0239 40.4014 34.5592 40.4014H35.5907C35.5518 40.7225 35.5323 41.0437 35.5323 41.3746C35.5323 41.7055 35.5518 42.0266 35.5907 42.3478H34.5592C34.0239 42.3478 33.5859 42.7857 33.5859 43.321C33.5859 43.8563 34.0239 44.2942 34.5592 44.2942H36.0384C37.0506 47.1457 39.4934 49.1603 42.3449 49.1603C44.0772 49.1603 45.7122 48.4304 46.9482 47.1068C47.318 46.7175 47.2985 46.0947 46.8995 45.7346C46.5102 45.3648 45.8874 45.3842 45.5273 45.7832C44.6611 46.7078 43.5322 47.2139 42.3449 47.2139C40.5444 47.2139 38.9776 46.0363 38.1406 44.2942H42.3449C42.8801 44.2942 43.3181 43.8563 43.3181 43.321C43.3181 42.7858 42.8801 42.3478 42.3449 42.3478H37.5566C37.508 42.0267 37.4788 41.7055 37.4788 41.3746C37.4788 41.0437 37.508 40.7225 37.5566 40.4014H42.3449C42.8801 40.4014 43.3181 39.9634 43.3181 39.4282C43.3181 38.8929 42.8801 38.455 42.3449 38.455H38.1406C38.9873 36.7129 40.5541 35.5353 42.3449 35.5353Z" fill="white"/>
</svg>
