<svg width="53" height="53" viewBox="0 0 53 53" fill="none" xmlns="http://www.w3.org/2000/svg">
<path d="M34.1266 34.1277C34.1266 33.2657 33.7841 32.439 33.1746 31.8295C32.5651 31.22 31.7384 30.8775 30.8764 30.8775H20.4191L21.126 25.2873C21.13 25.2549 21.13 25.2222 21.126 25.1898C21.126 20.6883 17.9408 19.502 16.2507 19.502C16.0684 19.4953 15.889 19.5501 15.7416 19.6577C15.5942 19.7653 15.4874 19.9194 15.4382 20.0952L12.1881 31.3813C11.6421 32.4578 10.7953 33.3527 9.75045 33.9571V33.3152C9.75045 33.0997 9.66484 32.893 9.51246 32.7406C9.36008 32.5882 9.15341 32.5026 8.93791 32.5026H0.812537C0.597039 32.5026 0.390367 32.5882 0.237987 32.7406C0.0856064 32.893 0 33.0997 0 33.3152L0 51.191C0 51.4065 0.0856064 51.6131 0.237987 51.7655C0.390367 51.9179 0.597039 52.0035 0.812537 52.0035H8.93791C9.15341 52.0035 9.36008 51.9179 9.51246 51.7655C9.66484 51.6131 9.75045 51.4065 9.75045 51.191V50.6466L14.4063 52.0035C14.4789 52.0159 14.5531 52.0159 14.6257 52.0035H28.4388C29.0544 51.9948 29.6548 51.8115 30.1702 51.4749C30.6857 51.1382 31.0949 50.6621 31.3503 50.102C31.6057 49.5418 31.6967 48.9207 31.6128 48.3108C31.5289 47.7009 31.2736 47.1274 30.8764 46.657C31.2789 46.4148 31.6241 46.0881 31.8882 45.6997C32.1523 45.3112 32.3291 44.87 32.4063 44.4067C32.4835 43.9433 32.4594 43.4687 32.3356 43.0155C32.2117 42.5624 31.9911 42.1415 31.689 41.7818C32.0914 41.5395 32.4366 41.2129 32.7007 40.8244C32.9649 40.4359 33.1416 39.9948 33.2188 39.5314C33.2961 39.0681 33.2719 38.5935 33.1481 38.1403C33.0243 37.6872 32.8037 37.2663 32.5015 36.9066C32.9904 36.6244 33.3973 36.2197 33.6822 35.7325C33.9672 35.2452 34.1203 34.6921 34.1266 34.1277ZM8.12537 50.3784H1.62507V34.1277H8.12537V50.3784ZM28.4388 50.3784H14.7394L9.75045 48.9565V35.6553C12.1881 35.0946 13.6588 32.1939 13.7238 32.0557C13.7462 32.0084 13.7652 31.9595 13.7806 31.9095L16.8439 21.2002C17.7946 21.4115 19.4846 22.1996 19.5009 25.141L18.6884 31.5926C18.6745 31.706 18.6847 31.8211 18.7183 31.9303C18.7519 32.0395 18.8081 32.1404 18.8834 32.2264C18.9604 32.3141 19.0554 32.3841 19.162 32.4318C19.2686 32.4795 19.3842 32.5036 19.5009 32.5026H30.8764C31.3074 32.5026 31.7208 32.6738 32.0255 32.9786C32.3303 33.2833 32.5015 33.6967 32.5015 34.1277C32.5015 34.5587 32.3303 34.972 32.0255 35.2768C31.7208 35.5816 31.3074 35.7528 30.8764 35.7528H26.8137C26.5982 35.7528 26.3916 35.8384 26.2392 35.9908C26.0868 36.1431 26.0012 36.3498 26.0012 36.5653C26.0012 36.7808 26.0868 36.9875 26.2392 37.1399C26.3916 37.2922 26.5982 37.3778 26.8137 37.3778H30.0639C30.4949 37.3778 30.9082 37.5491 31.213 37.8538C31.5177 38.1586 31.689 38.5719 31.689 39.0029C31.689 39.4339 31.5177 39.8473 31.213 40.152C30.9082 40.4568 30.4949 40.628 30.0639 40.628H26.0012C25.7857 40.628 25.579 40.7136 25.4266 40.866C25.2743 41.0184 25.1887 41.225 25.1887 41.4405C25.1887 41.656 25.2743 41.8627 25.4266 42.0151C25.579 42.1675 25.7857 42.2531 26.0012 42.2531H29.2513C29.6823 42.2531 30.0957 42.4243 30.4004 42.729C30.7052 43.0338 30.8764 43.4471 30.8764 43.8781C30.8764 44.3091 30.7052 44.7225 30.4004 45.0272C30.0957 45.332 29.6823 45.5032 29.2513 45.5032H25.1887C24.9732 45.5032 24.7665 45.5888 24.6141 45.7412C24.4617 45.8936 24.3761 46.1003 24.3761 46.3157C24.3761 46.5312 24.4617 46.7379 24.6141 46.8903C24.7665 47.0427 24.9732 47.1283 25.1887 47.1283H28.4388C28.8698 47.1283 29.2831 47.2995 29.5879 47.6043C29.8927 47.909 30.0639 48.3224 30.0639 48.7534C30.0639 49.1844 29.8927 49.5977 29.5879 49.9025C29.2831 50.2072 28.8698 50.3784 28.4388 50.3784Z" fill="white"/>
<path d="M10.5625 12.1891H11.3751V13.0017C11.3751 13.2171 11.4607 13.4238 11.6131 13.5762C11.7654 13.7286 11.9721 13.8142 12.1876 13.8142C12.4031 13.8142 12.6098 13.7286 12.7622 13.5762C12.9145 13.4238 13.0001 13.2171 13.0001 13.0017V12.1891H13.8127C14.0282 12.1891 14.2349 12.1035 14.3872 11.9511C14.5396 11.7987 14.6252 11.5921 14.6252 11.3766C14.6252 11.1611 14.5396 10.9544 14.3872 10.802C14.2349 10.6496 14.0282 10.564 13.8127 10.564H13.0001V9.7515C13.0001 9.536 12.9145 9.32933 12.7622 9.17695C12.6098 9.02457 12.4031 8.93896 12.1876 8.93896C11.9721 8.93896 11.7654 9.02457 11.6131 9.17695C11.4607 9.32933 11.3751 9.536 11.3751 9.7515V10.564H10.5625C10.347 10.564 10.1404 10.6496 9.98799 10.802C9.83561 10.9544 9.75 11.1611 9.75 11.3766C9.75 11.5921 9.83561 11.7987 9.98799 11.9511C10.1404 12.1035 10.347 12.1891 10.5625 12.1891Z" fill="white"/>
<path d="M43.8752 40.628H43.0626V39.8155C43.0626 39.6 42.977 39.3933 42.8247 39.2409C42.6723 39.0885 42.4656 39.0029 42.2501 39.0029C42.0346 39.0029 41.8279 39.0885 41.6756 39.2409C41.5232 39.3933 41.4376 39.6 41.4376 39.8155V40.628H40.625C40.4095 40.628 40.2029 40.7136 40.0505 40.866C39.8981 41.0184 39.8125 41.225 39.8125 41.4405C39.8125 41.656 39.8981 41.8627 40.0505 42.0151C40.2029 42.1675 40.4095 42.2531 40.625 42.2531H41.4376V43.0656C41.4376 43.2811 41.5232 43.4878 41.6756 43.6402C41.8279 43.7925 42.0346 43.8782 42.2501 43.8782C42.4656 43.8782 42.6723 43.7925 42.8247 43.6402C42.977 43.4878 43.0626 43.2811 43.0626 43.0656V42.2531H43.8752C44.0907 42.2531 44.2974 42.1675 44.4497 42.0151C44.6021 41.8627 44.6877 41.656 44.6877 41.4405C44.6877 41.225 44.6021 41.0184 44.4497 40.866C44.2974 40.7136 44.0907 40.628 43.8752 40.628Z" fill="white"/>
<path d="M34.1258 0.00100463C29.3849 0.00100463 24.8381 1.88434 21.4857 5.23671C18.1333 8.58908 16.25 13.1359 16.25 17.8768C16.25 18.0923 16.3356 18.299 16.488 18.4514C16.6404 18.6038 16.847 18.6894 17.0625 18.6894C17.278 18.6894 17.4847 18.6038 17.6371 18.4514C17.7895 18.299 17.8751 18.0923 17.8751 17.8768C17.876 14.7955 18.753 11.7779 20.4038 9.17601C22.0545 6.57414 24.411 4.4952 27.1984 3.18167C29.9857 1.86813 33.0891 1.37413 36.1465 1.75729C39.204 2.14044 42.0895 3.38495 44.4665 5.34568C46.8435 7.30641 48.6141 9.90254 49.5718 12.8313C50.5294 15.7601 50.6347 18.9007 49.8753 21.887C49.1159 24.8733 47.5231 27.5822 45.2826 29.6977C43.0422 31.8131 40.2465 33.2481 37.2216 33.8351C37.0061 33.8555 36.8075 33.9608 36.6696 34.1276C36.5317 34.2945 36.4658 34.5093 36.4862 34.7248C36.5067 34.9403 36.612 35.1388 36.7788 35.2767C36.9457 35.4146 37.1605 35.4806 37.376 35.4601H37.5303C41.9352 34.6547 45.8774 32.2255 48.577 28.653C51.2767 25.0804 52.5372 20.6247 52.1092 16.1674C51.6813 11.71 49.596 7.57558 46.2659 4.58196C42.9358 1.58834 38.6034 -0.0464433 34.1258 0.00100463Z" fill="white"/>
<path d="M41.4382 21.1273C41.4382 19.4033 40.7533 17.7499 39.5343 16.5309C38.3152 15.3118 36.6619 14.627 34.9379 14.627H33.3128C32.8818 14.627 32.4685 14.4558 32.1637 14.151C31.8589 13.8463 31.6877 13.4329 31.6877 13.0019C31.6877 12.5709 31.8589 12.1576 32.1637 11.8528C32.4685 11.5481 32.8818 11.3768 33.3128 11.3768H39.0006C39.6471 11.3768 40.2671 11.12 40.7242 10.6629C41.1814 10.2057 41.4382 9.58572 41.4382 8.93923C41.4382 8.29273 41.1814 7.67271 40.7242 7.21557C40.2671 6.75843 39.6471 6.50161 39.0006 6.50161H36.5629V4.064C36.5629 3.8485 36.4773 3.64183 36.325 3.48945C36.1726 3.33707 35.9659 3.25146 35.7504 3.25146H32.5003C32.2848 3.25146 32.0781 3.33707 31.9257 3.48945C31.7733 3.64183 31.6877 3.8485 31.6877 4.064V6.71287C30.1602 7.1121 28.8301 8.05367 27.9459 9.36175C27.0617 10.6698 26.6839 12.255 26.8829 13.8213C27.0819 15.3876 27.8442 16.8279 29.0274 17.8733C30.2107 18.9187 31.7339 19.4977 33.3128 19.5022H34.9379C35.3689 19.5022 35.7822 19.6734 36.087 19.9782C36.3917 20.2829 36.5629 20.6963 36.5629 21.1273C36.5629 21.5583 36.3917 21.9716 36.087 22.2764C35.7822 22.5811 35.3689 22.7524 34.9379 22.7524H29.2501C28.6036 22.7524 27.9836 23.0092 27.5265 23.4663C27.0693 23.9235 26.8125 24.5435 26.8125 25.19C26.8125 25.8365 27.0693 26.4565 27.5265 26.9136C27.9836 27.3708 28.6036 27.6276 29.2501 27.6276H31.6877V30.0652C31.6877 30.2807 31.7733 30.4874 31.9257 30.6397C32.0781 30.7921 32.2848 30.8777 32.5003 30.8777H35.7504C35.9659 30.8777 36.1726 30.7921 36.325 30.6397C36.4773 30.4874 36.5629 30.2807 36.5629 30.0652V27.4163C37.9575 27.0563 39.1929 26.2433 40.0753 25.105C40.9577 23.9667 41.4371 22.5675 41.4382 21.1273ZM35.6367 25.9456C35.4414 25.9732 35.2629 26.0709 35.1343 26.2204C35.0058 26.3699 34.9359 26.561 34.9379 26.7582V29.2527H33.3128V26.815C33.3128 26.5995 33.2272 26.3929 33.0748 26.2405C32.9224 26.0881 32.7158 26.0025 32.5003 26.0025H29.2501C29.0346 26.0025 28.8279 25.9169 28.6756 25.7645C28.5232 25.6121 28.4376 25.4055 28.4376 25.19C28.4376 24.9745 28.5232 24.7678 28.6756 24.6154C28.8279 24.463 29.0346 24.3774 29.2501 24.3774H34.9379C35.7999 24.3774 36.6266 24.035 37.2361 23.4255C37.8456 22.816 38.188 21.9893 38.188 21.1273C38.188 20.2653 37.8456 19.4386 37.2361 18.8291C36.6266 18.2196 35.7999 17.8771 34.9379 17.8771H33.3128C32.0879 17.8664 30.9119 17.395 30.0187 16.5567C29.1256 15.7183 28.5808 14.5744 28.4927 13.3526C28.4047 12.1308 28.7798 10.9207 29.5434 9.96285C30.3071 9.00505 31.4033 8.36983 32.614 8.18357C32.8092 8.15597 32.9878 8.05833 33.1164 7.90883C33.2449 7.75934 33.3147 7.56819 33.3128 7.37103V4.87654H34.9379V7.31415C34.9379 7.52965 35.0235 7.73632 35.1759 7.8887C35.3282 8.04108 35.5349 8.12669 35.7504 8.12669H39.0006C39.2161 8.12669 39.4227 8.2123 39.5751 8.36468C39.7275 8.51706 39.8131 8.72373 39.8131 8.93923C39.8131 9.15472 39.7275 9.3614 39.5751 9.51378C39.4227 9.66616 39.2161 9.75176 39.0006 9.75176H33.3128C32.4508 9.75176 31.6241 10.0942 31.0146 10.7037C30.4051 11.3132 30.0626 12.1399 30.0626 13.0019C30.0626 13.8639 30.4051 14.6906 31.0146 15.3001C31.6241 15.9096 32.4508 16.2521 33.3128 16.2521H34.9379C36.1628 16.2627 37.3388 16.7342 38.2319 17.5725C39.1251 18.4109 39.6699 19.5548 39.7579 20.7766C39.846 21.9984 39.4709 23.2085 38.7073 24.1663C37.9436 25.1241 36.8474 25.7594 35.6367 25.9456Z" fill="white"/>
</svg>
