<svg width="11" height="19" viewBox="0 0 11 19" fill="none" xmlns="http://www.w3.org/2000/svg">
<path d="M11 12.2983C11 9.54368 9.27669 8.59291 5.82471 8.18691C3.36283 7.86827 2.87045 7.23614 2.87045 6.13119C2.87045 5.02624 3.69465 4.36327 5.33233 4.36327C6.80946 4.36327 7.63365 4.83608 8.04575 6.01812C8.08744 6.1325 8.16474 6.23181 8.26717 6.3026C8.36961 6.37338 8.49222 6.41222 8.61841 6.41385H9.93497C10.0121 6.4193 10.0895 6.40864 10.1619 6.3826C10.2344 6.35656 10.3 6.31577 10.3545 6.26302C10.4089 6.21027 10.4508 6.14682 10.4772 6.07704C10.5036 6.00726 10.514 5.93281 10.5076 5.8588V5.78171C10.3509 4.92665 9.90345 4.14559 9.23528 3.56069C8.56711 2.97579 7.7159 2.62004 6.8148 2.54909V0.632134C6.8148 0.313497 6.56863 0.0770895 6.15653 0H4.92558C4.59911 0 4.35292 0.236408 4.27265 0.632134V2.44117C1.80542 2.75981 0.248016 4.33757 0.248016 6.30592C0.248016 8.91155 1.88571 9.93427 5.33769 10.33C7.63366 10.7206 8.37221 11.1934 8.37221 12.4577C8.37221 13.7219 7.2269 14.5853 5.66415 14.5853C3.52338 14.5853 2.79018 13.7219 2.54399 12.5296C2.51949 12.3997 2.44922 12.2818 2.34496 12.1957C2.2407 12.1096 2.10878 12.0606 1.97133 12.0568H0.574491C0.497373 12.0514 0.419932 12.062 0.347515 12.088C0.275098 12.1141 0.209425 12.1549 0.155002 12.2076C0.100578 12.2604 0.058702 12.3238 0.0322611 12.3936C0.00582012 12.4634 -0.00456171 12.5378 0.00183319 12.6118V12.6889C0.3283 14.6624 1.63952 16.0809 4.35294 16.4766V18.3679C4.35294 18.6865 4.59913 18.9229 5.00587 19H6.2368C6.56862 19 6.81482 18.7636 6.89509 18.3679V16.4817C9.35697 16.086 11 14.426 11 12.2983Z" fill="#0F0F0F"/>
</svg>
