<svg width="49" height="66" viewBox="0 0 49 66" fill="none" xmlns="http://www.w3.org/2000/svg">
<path d="M21.5111 66L21.6108 64.3766C21.8666 60.2039 21.7271 55.9751 21.1967 51.8078C20.5354 46.6183 19.4647 43.0562 18.3316 39.2857C17.3386 35.9828 16.3118 32.5664 15.5329 27.9181C14.6649 22.7326 14.3459 17.3133 14.5845 11.8112L14.635 10.6475L42.2091 7.41541L42.1028 9.05348C41.8363 13.1513 41.9479 17.296 42.4344 21.3711C43.0705 26.6995 44.1777 30.446 45.2491 34.0695C45.6359 35.3803 46.0194 36.6776 46.3762 38.0284C48.3282 45.4131 49.1982 53.3991 48.9609 61.7632L48.927 62.9536L21.5111 66ZM17.2622 13.0939C17.1213 18.0041 17.4423 22.8328 18.2179 27.4638C18.9676 31.9411 19.9685 35.2734 20.9368 38.4947C22.0527 42.2065 23.2065 46.0451 23.8964 51.4604C24.3802 55.259 24.5517 59.1083 24.4081 62.9242L46.2659 60.4965C46.3842 52.8286 45.5375 45.512 43.7457 38.7312C43.3955 37.4058 43.0193 36.1338 42.6391 34.8485C41.5359 31.1154 40.3947 27.2554 39.7321 21.6971C39.2901 17.9961 39.1453 14.2416 39.2994 10.5112L17.2622 13.0939Z" fill="white"/>
<path d="M6.61733 55.6812L6.62796 54.1046C6.65787 49.8451 6.34949 45.5441 5.71212 41.322C5.01295 36.6883 4.10177 33.3922 3.21982 30.2055C2.3525 27.0697 1.45594 23.8269 0.80196 19.4271C0.0688912 14.4915 -0.163059 9.36482 0.112091 4.18738L0.173235 3.03565L26.1782 0L26.8674 10.1531L24.1518 10.3402L23.6567 3.04901L2.77786 5.48608C2.60173 10.0863 2.84232 14.6358 3.49497 19.0236C4.1237 23.2564 4.95845 26.276 5.84305 29.472C6.74626 32.7375 7.68004 36.1152 8.40381 40.9105C8.98402 44.7558 9.30037 48.6639 9.34623 52.5494L22.2803 50.791L22.6445 53.5033L6.61733 55.6812Z" fill="white"/>
<path d="M31.9563 46.5889C31.9184 46.5889 31.8806 46.5889 31.8427 46.5889C26.7006 46.5221 22.3773 42.0929 22.2045 36.7137L22.2031 36.6709L22.2045 36.6282C22.3467 31.8395 25.6565 27.7323 30.0741 26.8612C32.617 26.3615 35.3385 26.9975 37.5411 28.6128C39.8008 30.2696 41.2769 32.7748 41.5912 35.4845C41.9182 38.2983 40.9884 41.1589 39.0398 43.3301C37.1789 45.4064 34.6022 46.5889 31.9563 46.5889ZM24.9267 36.6683C25.0743 40.5857 28.184 43.8044 31.8772 43.8525C33.8126 43.8592 35.6542 43.0175 37.018 41.4983C38.4423 39.911 39.1235 37.8347 38.8876 35.8025C38.6609 33.8464 37.5849 32.0319 35.936 30.8228C34.3456 29.655 32.3983 29.1874 30.5985 29.5468C27.4283 30.1707 25.0497 33.1623 24.9267 36.6683Z" fill="white"/>
<path d="M16.7641 37.1587C15.6289 37.1587 14.3103 36.9716 12.9545 36.3877C9.83547 35.0449 6.60612 31.5109 6.88392 26.924C7.15841 22.3799 10.748 18.6094 15.4189 17.9561L15.7937 20.6657C12.4015 21.14 9.79759 23.8416 9.60086 27.0897C9.40281 30.3552 11.7562 32.8951 14.0265 33.8732C15.6083 34.5546 17.1475 34.4784 18.1591 34.2967L18.6389 36.9903C18.1092 37.0852 17.4725 37.1587 16.7641 37.1587Z" fill="white"/>
</svg>
