<svg width="35" height="35" viewBox="0 0 35 35" fill="none" xmlns="http://www.w3.org/2000/svg">
<circle cx="17.5" cy="17.5" r="17.5" fill="#1E66D0"/>
<path d="M20.6127 24.0694C21.0795 24.0694 21.5332 24.0348 21.974 23.9657C22.4148 23.8965 22.834 23.7928 23.2316 23.6545L23.6076 26.2475C23.1063 26.3685 22.5834 26.4636 22.0389 26.5327C21.4943 26.6018 20.9412 26.6364 20.3794 26.6364C19.3163 26.6364 18.3396 26.4808 17.4494 26.1697C16.5678 25.8585 15.8028 25.3961 15.1546 24.7825C14.5064 24.1602 14.0007 23.3909 13.6377 22.4747C13.2834 21.5499 13.1062 20.4739 13.1062 19.2465V14.8515C13.1062 13.5896 13.2834 12.4876 13.6377 11.5455C14.0007 10.5947 14.5107 9.79958 15.1676 9.15999C15.8331 8.5204 16.6153 8.0407 17.5142 7.72091C18.4217 7.40111 19.4243 7.24121 20.522 7.24121C21.0579 7.24121 21.5765 7.28011 22.0778 7.35789C22.5877 7.42704 23.0976 7.52211 23.6076 7.64312L23.2316 10.249C22.8513 10.1194 22.4364 10.0157 21.987 9.93787C21.5462 9.86008 21.1011 9.82119 20.6516 9.82119C19.9861 9.82119 19.3854 9.92058 18.8495 10.1194C18.3223 10.3182 17.8729 10.6207 17.5012 11.0269C17.1296 11.4245 16.8443 11.9388 16.6455 12.5697C16.4554 13.2007 16.3603 13.9526 16.3603 14.8256V19.2465C16.3603 20.1108 16.4597 20.8498 16.6585 21.4635C16.8659 22.0685 17.1555 22.5655 17.5271 22.9544C17.8988 23.3347 18.3439 23.6156 18.8625 23.7971C19.3897 23.9786 19.9732 24.0694 20.6127 24.0694ZM21.0017 14.2551V16.0313H10.8633V14.2551H21.0017ZM21.0017 17.7297V19.5058H10.8633V17.7297H21.0017Z" fill="white"/>
</svg>
