<svg width="57" height="47" viewBox="0 0 57 47" fill="none" xmlns="http://www.w3.org/2000/svg">
<path d="M53.7769 38.0067H14.8845C13.2898 38.0067 11.9609 36.6778 11.9609 35.0831V30.2991C11.9609 29.7675 12.3153 29.4131 12.8469 29.4131C13.3784 29.4131 13.7328 29.7675 13.7328 30.2991V35.0831C13.7328 35.7033 14.2644 36.2348 14.8845 36.2348H53.7769C54.3971 36.2348 54.9286 35.7033 54.9286 35.0831V11.5173C54.9286 10.8972 54.3971 10.3656 53.7769 10.3656H14.8845C14.2644 10.3656 13.7328 10.8972 13.7328 11.5173V16.9215C13.7328 17.4531 13.3784 17.8074 12.8469 17.8074C12.3153 17.8074 11.9609 17.4531 11.9609 16.9215V11.5173C11.9609 9.92265 13.2898 8.59375 14.8845 8.59375H53.7769C55.3716 8.59375 56.7005 9.92265 56.7005 11.5173V35.1717C56.7005 36.6778 55.3716 38.0067 53.7769 38.0067Z" fill="white"/>
<path d="M39.2452 23.2999C39.2452 25.9577 37.0304 28.1725 34.3726 28.1725C31.7148 28.1725 29.5 25.9577 29.5 23.2999C29.5 20.6421 31.7148 18.4272 34.3726 18.4272C37.0304 18.4272 39.2452 20.6421 39.2452 23.2999Z" fill="white"/>
<path d="M51.8268 17.2755C49.7006 17.2755 48.0173 15.5922 48.0173 13.466C48.0173 13.023 47.6629 12.5801 47.1314 12.5801H21.6165C21.085 12.5801 20.7306 13.023 20.7306 13.466C20.7306 15.5922 19.0473 17.2755 16.9211 17.2755C16.4781 17.2755 16.0352 17.7185 16.0352 18.1614V28.3497C16.0352 28.8812 16.4781 29.2356 16.9211 29.2356C19.0473 29.2356 20.7306 30.9189 20.7306 33.0451C20.7306 33.5767 21.085 33.931 21.6165 33.931H47.1314C47.6629 33.931 48.0173 33.5767 48.0173 33.0451C48.0173 30.9189 49.7006 29.2356 51.8268 29.2356C52.2698 29.2356 52.7127 28.8812 52.7127 28.3497V18.1614C52.7127 17.7185 52.2698 17.2755 51.8268 17.2755ZM34.3739 29.9443C30.653 29.9443 27.7295 26.9322 27.7295 23.2999C27.7295 19.5789 30.7416 16.6554 34.3739 16.6554C38.0063 16.6554 41.0184 19.6675 41.0184 23.2999C41.0184 26.9322 38.0063 29.9443 34.3739 29.9443Z" fill="white"/>
<path d="M37.4681 42.9677H30.5578C30.0262 42.9677 29.6719 42.6133 29.6719 42.0817C29.6719 41.5502 30.0262 41.1958 30.5578 41.1958H37.4681C37.9996 41.1958 38.354 41.5502 38.354 42.0817C38.354 42.6133 37.911 42.9677 37.4681 42.9677Z" fill="white"/>
<path d="M25.5938 42.0814C25.5938 41.8156 25.6823 41.6384 25.8595 41.4612C26.3911 40.9297 27.3656 41.2841 27.3656 42.0814C27.3656 43.2331 25.5938 43.3217 25.5938 42.0814Z" fill="white"/>
<path d="M24.3587 46.6005H17.4484C16.9169 46.6005 16.5625 46.2461 16.5625 45.7145C16.5625 45.183 16.9169 44.8286 17.4484 44.8286H24.3587C24.8903 44.8286 25.2446 45.183 25.2446 45.7145C25.2446 46.2461 24.8903 46.6005 24.3587 46.6005Z" fill="white"/>
<path d="M13.4602 46.6001C12.9286 46.6001 12.5742 46.2458 12.5742 45.7142C12.5742 45.4484 12.6628 45.2712 12.84 45.0941C13.3716 44.5625 14.3461 44.9169 14.3461 45.7142C14.3461 46.1572 13.9031 46.6001 13.4602 46.6001Z" fill="white"/>
<path d="M29.9407 1.77186H23.0305C22.4989 1.77186 22.1445 1.41749 22.1445 0.885932C22.1445 0.354373 22.4989 0 23.0305 0H29.9407C30.4723 0 30.8267 0.354373 30.8267 0.885932C30.8267 1.41749 30.3837 1.77186 29.9407 1.77186Z" fill="white"/>
<path d="M18.422 1.59477C18.2448 1.41759 18.1562 1.2404 18.1562 0.974623C18.1562 -0.177088 19.9281 -0.177088 19.9281 0.974623C19.9281 1.2404 19.8395 1.41759 19.6623 1.59477C19.308 1.94915 18.6878 1.86055 18.422 1.59477Z" fill="white"/>
<path d="M43.4954 5.40419H36.5852C36.0536 5.40419 35.6992 5.04981 35.6992 4.51826C35.6992 3.9867 36.0536 3.63232 36.5852 3.63232H43.4954C44.027 3.63232 44.3813 3.9867 44.3813 4.51826C44.3813 5.04981 43.9384 5.40419 43.4954 5.40419Z" fill="white"/>
<path d="M31.8908 5.13841C31.5364 4.78403 31.5364 4.25248 31.8908 3.8981C32.2452 3.54373 32.7767 3.54373 33.1311 3.8981C33.4855 4.25248 33.4855 4.78403 33.1311 5.13841C32.7767 5.49278 32.2452 5.49278 31.8908 5.13841Z" fill="white"/>
<path d="M9.74525 20.3764H0.885932C0.354373 20.3764 0 20.022 0 19.4904C0 18.9589 0.354373 18.6045 0.885932 18.6045H9.74525C10.2768 18.6045 10.6312 18.9589 10.6312 19.4904C10.6312 20.022 10.2768 20.3764 9.74525 20.3764Z" fill="white"/>
<path d="M13.5526 24.1854H6.81953C6.28797 24.1854 5.93359 23.8311 5.93359 23.2995C5.93359 22.7679 6.28797 22.4136 6.81953 22.4136H13.5526C14.0842 22.4136 14.4385 22.7679 14.4385 23.2995C14.4385 23.8311 14.0842 24.1854 13.5526 24.1854Z" fill="white"/>
<path d="M9.74525 27.9955H0.885932C0.354373 27.9955 0 27.6411 0 27.1096C0 26.578 0.354373 26.2236 0.885932 26.2236H9.74525C10.2768 26.2236 10.6312 26.578 10.6312 27.1096C10.6312 27.6411 10.2768 27.9955 9.74525 27.9955Z" fill="white"/>
</svg>
