<svg width="70" height="70" viewBox="0 0 70 70" fill="none" xmlns="http://www.w3.org/2000/svg">
<circle cx="46.6667" cy="26.2497" r="20.4167" fill="#26A17B"/>
<path d="M50.012 22.9061V19.6782H57.5371V14.7656H37.0902V19.6782H44.5974V22.9061C38.4933 23.1771 33.9062 24.3669 33.9062 25.7865C33.9062 27.2061 38.4993 28.4018 44.5974 28.6787V39.0104H50.03V28.6787C56.1221 28.4018 60.7031 27.212 60.7031 25.7924C60.7031 24.3728 56.1221 23.183 50.03 22.9061M50.03 27.801C49.88 27.801 49.0885 27.8599 47.3377 27.8599C45.9346 27.8599 44.9392 27.8187 44.6034 27.801C39.2069 27.5654 35.1834 26.623 35.1834 25.5391C35.1834 24.4553 39.2069 23.5128 44.6034 23.2772V26.8821C44.9572 26.8821 45.9645 26.9646 47.3617 26.9646C49.0346 26.9646 49.8741 26.8939 50.03 26.8821V23.2772C55.4265 23.5128 59.4319 24.4553 59.4319 25.5391C59.4319 26.623 55.4145 27.5654 50.03 27.801Z" fill="white"/>
<g filter="url(#filter0_b_287_1660)">
<circle cx="35" cy="35" r="35" fill="#1E1E1E" fill-opacity="0.8"/>
</g>
<circle cx="34.9987" cy="34.9997" r="20.4167" fill="#26A17B"/>
<path d="M38.344 31.6561V28.4282H45.8692V23.5156H25.4222V28.4282H32.9295V31.6561C26.8254 31.9271 22.2383 33.1169 22.2383 34.5365C22.2383 35.9561 26.8314 37.1518 32.9295 37.4287V47.7604H38.362V37.4287C44.4541 37.1518 49.0352 35.962 49.0352 34.5424C49.0352 33.1228 44.4541 31.933 38.362 31.6561M38.362 36.551C38.2121 36.551 37.4206 36.6099 35.6697 36.6099C34.2666 36.6099 33.2712 36.5687 32.9354 36.551C27.5389 36.3154 23.5155 35.373 23.5155 34.2891C23.5155 33.2053 27.5389 32.2628 32.9354 32.0272V35.6321C33.2892 35.6321 34.2966 35.7146 35.6937 35.7146C37.3666 35.7146 38.2061 35.6439 38.362 35.6321V32.0272C43.7585 32.2628 47.764 33.2053 47.764 34.2891C47.764 35.373 43.7465 36.3154 38.362 36.551Z" fill="white"/>
<defs>
<filter id="filter0_b_287_1660" x="-13" y="-13" width="96" height="96" filterUnits="userSpaceOnUse" color-interpolation-filters="sRGB">
<feFlood flood-opacity="0" result="BackgroundImageFix"/>
<feGaussianBlur in="BackgroundImageFix" stdDeviation="6.5"/>
<feComposite in2="SourceAlpha" operator="in" result="effect1_backgroundBlur_287_1660"/>
<feBlend mode="normal" in="SourceGraphic" in2="effect1_backgroundBlur_287_1660" result="shape"/>
</filter>
</defs>
</svg>
