<svg width="88" height="95" viewBox="0 0 88 95" fill="none" xmlns="http://www.w3.org/2000/svg">
<path d="M0 89.6371V84.2742H1.91138H3.82276V89.6371V95H1.91138H0V89.6371ZM7.98957 89.6371V84.2742H9.90096H11.8123V89.6371V95H9.90096H7.98957V89.6371ZM15.8645 89.6371V84.2742H17.7758H19.6872V89.6371V95H17.7758H15.8645V89.6371ZM23.6629 89.6371V84.2742H25.5743H27.4857V89.6371V95H25.5743H23.6629V89.6371ZM31.4613 89.6371V84.2742H33.3727H35.2841V89.6371V95H33.3727H31.4613V89.6371ZM39.4509 89.6371V84.2742H41.3623H43.2737V89.6371V95H41.3623H39.4509V89.6371ZM47.7081 89.6371V84.2742H49.6195H51.5308V89.6371V95H49.6195H47.7081V89.6371ZM55.2007 89.6371V84.2742H57.1121H59.0235V89.6371V95H57.1121H55.2007V89.6371ZM61.967 87.0131V79.0262H63.8592H65.7515V87.0131V95H63.8592H61.967V87.0131ZM69.0773 82.0141V69.0282H70.9887H72.9001V82.0141V95H70.9887H69.0773V82.0141ZM76.2641 68.4536V41.9073H78.1755H80.0869V68.4536V95H78.1755H76.2641V68.4536ZM84.1772 47.5V0H86.0886H88V47.5V95H86.0886H84.1772V47.5Z" fill="white"/>
</svg>
