<svg width="49" height="53" viewBox="0 0 49 53" fill="none" xmlns="http://www.w3.org/2000/svg">
<path d="M1.07362 52.9984H35.6335C35.7344 52.9985 35.831 52.9993 35.9326 52.9995L36.5182 52.9989L37.1037 52.9995C37.2982 52.9995 37.4906 53 37.6819 53C41.6461 53 45.0515 52.9046 47.1474 50.7513C48.394 49.4709 49 47.6276 49 45.1158C49 39.963 44.771 31.4119 41.0838 27.2923L42.5704 21.4681C42.6548 21.137 42.585 20.7844 42.3822 20.5133C42.1788 20.2421 41.8647 20.0836 41.5319 20.0836H37.5871V1.10413C37.5871 0.49438 37.1063 0 36.5134 0H11.144C11.1201 0 11.0987 0.0125347 11.075 0.0141521C10.9788 0.0202847 10.8861 0.0391541 10.795 0.0714344C10.7633 0.0827561 10.7326 0.0912473 10.7021 0.105534C10.586 0.159447 10.4758 0.227579 10.3823 0.324016L0.312963 10.6796C0.218996 10.7762 0.152681 10.8904 0.100258 11.0105C0.0880045 11.0384 0.0807965 11.0665 0.0708361 11.0953C0.0364337 11.1953 0.0167753 11.2973 0.0112709 11.4032C0.0102224 11.4232 0 11.4412 0 11.4613V51.8943C0 52.504 0.480716 52.9984 1.07362 52.9984ZM46.8528 45.1158C46.8528 47.0114 46.4528 48.3436 45.6297 49.1889C44.0628 50.7993 40.8352 50.7907 37.1063 50.7912L36.5182 50.7907H36.5161L36.5134 50.7901H35.4063C31.8972 50.7873 28.8983 50.7216 27.406 49.1889C26.583 48.3436 26.183 47.0114 26.183 45.1158C26.183 40.5472 30.1839 32.4668 33.5972 28.7042H39.4392C42.8519 32.4609 46.8528 40.5402 46.8528 45.1158ZM36.5134 22.2924L36.5161 22.2918H40.14L39.0675 26.4938H36.5394C36.5302 26.4935 36.5226 26.4884 36.5134 26.4884C36.5043 26.4884 36.4967 26.4935 36.4875 26.4938H33.9683L32.8958 22.2918H36.5108L36.5134 22.2924ZM10.0678 3.77234V10.3561H3.66638L10.0678 3.77234ZM2.14723 12.5644H11.1414C11.7343 12.5644 12.215 12.07 12.215 11.4602V2.20827H35.4398V20.0836H31.5039C31.171 20.0836 30.857 20.2421 30.6536 20.5133C30.4508 20.7844 30.381 21.137 30.4654 21.4681L31.9521 27.2929C28.2649 31.418 24.0358 39.9704 24.0358 45.1158C24.0358 47.6276 24.6418 49.4709 25.8884 50.7513C25.9028 50.766 25.9204 50.7756 25.9348 50.7901H2.14723V12.5644Z" fill="white"/>
<path d="M36.5211 36.0501C37.2939 36.0501 37.9224 36.6965 37.9224 37.4912C37.9224 38.101 38.4031 38.5954 38.996 38.5954C39.5889 38.5954 40.0696 38.101 40.0696 37.4912C40.0696 35.8665 39.0246 34.5024 37.5948 34.0312V33.6354C37.5948 33.0256 37.114 32.5312 36.5211 32.5312C35.9282 32.5312 35.4475 33.0256 35.4475 33.6354V34.0312C34.0177 34.5024 32.9727 35.8665 32.9727 37.4912C32.9727 39.5032 34.5647 41.1406 36.5211 41.1406C37.2939 41.1406 37.9224 41.787 37.9224 42.5817C37.9224 43.3763 37.2939 44.0233 36.5211 44.0233C35.7484 44.0233 35.1199 43.3763 35.1199 42.5817C35.1199 41.9719 34.6392 41.4775 34.0463 41.4775C33.4534 41.4775 32.9727 41.9719 32.9727 42.5817C32.9727 44.2068 34.0177 45.571 35.4475 46.0423V46.4375C35.4475 47.0473 35.9282 47.5416 36.5211 47.5416C37.114 47.5416 37.5948 47.0473 37.5948 46.4375V46.0423C39.0246 45.571 40.0696 44.2068 40.0696 42.5817C40.0696 40.5696 38.4776 38.9323 36.5211 38.9323C35.7484 38.9323 35.1199 38.2859 35.1199 37.4912C35.1199 36.6965 35.7484 36.0501 36.5211 36.0501Z" fill="white"/>
<path d="M7.4369 18.1282H25.8378C26.4307 18.1282 26.9114 17.6338 26.9114 17.0241C26.9114 16.4143 26.4307 15.9199 25.8378 15.9199H7.4369C6.844 15.9199 6.36328 16.4143 6.36328 17.0241C6.36328 17.6338 6.844 18.1282 7.4369 18.1282Z" fill="white"/>
<path d="M7.4369 24.0803H25.8378C26.4307 24.0803 26.9114 23.586 26.9114 22.9762C26.9114 22.3665 26.4307 21.8721 25.8378 21.8721H7.4369C6.844 21.8721 6.36328 22.3665 6.36328 22.9762C6.36328 23.586 6.844 24.0803 7.4369 24.0803Z" fill="white"/>
<path d="M7.4369 30.032H25.8378C26.4307 30.032 26.9114 29.5376 26.9114 28.9279C26.9114 28.3181 26.4307 27.8237 25.8378 27.8237H7.4369C6.844 27.8237 6.36328 28.3181 6.36328 28.9279C6.36328 29.5376 6.844 30.032 7.4369 30.032Z" fill="white"/>
<path d="M20.1987 33.7759H7.4369C6.844 33.7759 6.36328 34.2703 6.36328 34.88C6.36328 35.4898 6.844 35.9841 7.4369 35.9841H20.1987C20.7916 35.9841 21.2723 35.4898 21.2723 34.88C21.2723 34.2703 20.7916 33.7759 20.1987 33.7759Z" fill="white"/>
<path d="M20.1987 39.7275H7.4369C6.844 39.7275 6.36328 40.2219 6.36328 40.8317C6.36328 41.4414 6.844 41.9358 7.4369 41.9358H20.1987C20.7916 41.9358 21.2723 41.4414 21.2723 40.8317C21.2723 40.2219 20.7916 39.7275 20.1987 39.7275Z" fill="white"/>
</svg>
