<svg width="364" height="239" viewBox="0 0 364 239" fill="none" xmlns="http://www.w3.org/2000/svg">
<g style="mix-blend-mode:screen">
<path d="M118.803 218.232C99.3129 218.139 80.2878 212.258 64.134 201.331C47.9802 190.404 35.4233 174.923 28.0512 156.845C20.6792 138.768 18.8232 118.906 22.7181 99.7714C26.6129 80.637 36.0836 63.0895 49.9323 49.3483C63.7811 35.607 81.3859 26.2893 100.52 22.5734C119.655 18.8576 139.459 20.9105 157.429 28.4726C175.398 36.0347 190.726 48.7663 201.474 65.0572C212.222 81.3481 217.907 100.467 217.809 119.995C217.635 146.162 207.118 171.193 188.561 189.606C170.004 208.019 144.92 218.312 118.803 218.232ZM119.708 31.4273C102.316 31.3406 85.2896 36.4233 70.7812 46.0328C56.2729 55.6423 44.9346 69.3468 38.2002 85.4131C31.4659 101.479 29.6381 119.186 32.948 136.293C36.2579 153.4 44.5567 169.14 56.795 181.521C69.0333 193.902 84.6613 202.369 101.702 205.851C118.744 209.332 136.433 207.672 152.532 201.08C168.631 194.489 182.418 183.261 192.149 168.818C201.88 154.375 207.117 137.365 207.198 119.94C207.293 96.5806 198.134 74.1381 181.731 57.5383C165.328 40.9385 143.021 31.5379 119.708 31.3998V31.4273Z" fill="#1E66D0"/>
<path d="M118.693 239C87.0701 238.818 56.8112 226.072 34.5583 203.56C12.3054 181.047 -0.123073 150.608 0.000918911 118.923H9.1585C9.06656 140.746 15.4347 162.106 27.4577 180.304C39.4807 198.501 56.6187 212.717 76.7051 221.156C96.7914 229.595 118.924 231.878 140.305 227.715C161.686 223.552 181.355 213.131 196.825 197.769C212.295 182.406 222.872 162.794 227.218 141.409C231.564 120.025 229.485 97.8297 221.242 77.6295C213 57.4293 198.965 40.1312 180.912 27.9222C162.859 15.7132 141.598 9.14161 119.817 9.03819V-0.137207C151.449 0.0194384 181.723 12.7598 203.98 35.2812C226.236 57.8025 238.652 88.26 238.496 119.953C238.339 151.647 225.624 181.98 203.146 204.28C180.668 226.58 150.27 239.019 118.638 238.863L118.693 239Z" fill="#1E66D0"/>
<path d="M218.084 220.155L211.641 213.644C236.348 189.048 250.317 155.642 250.487 120.745C250.656 85.8484 237.013 52.3074 212.545 27.4714L219.043 21.0156C245.225 47.5758 259.826 83.454 259.646 120.784C259.466 158.114 244.52 193.849 218.084 220.155Z" fill="#1E66D0"/>
<path d="M255.754 107.549L255.75 108.455L305.266 108.698L305.271 107.791L255.754 107.549Z" fill="#1E66D0"/>
<path d="M331.348 148.18L231.629 147.686V146.779L331.348 147.274V148.18Z" fill="#1E66D0"/>
<path d="M189.399 181.765L189.395 182.671L358.588 183.5L358.593 182.593L189.399 181.765Z" fill="#1E66D0"/>
<path d="M299.871 108.649C299.871 107.562 300.193 106.5 300.795 105.597C301.398 104.693 302.254 103.989 303.256 103.573C304.258 103.157 305.361 103.048 306.424 103.26C307.488 103.472 308.465 103.996 309.232 104.764C309.999 105.532 310.521 106.511 310.733 107.577C310.944 108.643 310.836 109.748 310.421 110.752C310.006 111.756 309.303 112.614 308.401 113.217C307.499 113.821 306.439 114.143 305.355 114.143C303.9 114.143 302.506 113.564 301.477 112.534C300.449 111.504 299.871 110.106 299.871 108.649Z" fill="#1E66D0"/>
<path d="M325.945 146.999C325.945 145.912 326.267 144.85 326.869 143.946C327.472 143.043 328.328 142.338 329.33 141.923C330.332 141.507 331.435 141.398 332.499 141.61C333.562 141.822 334.539 142.345 335.306 143.114C336.073 143.882 336.596 144.861 336.807 145.927C337.019 146.993 336.91 148.097 336.495 149.101C336.08 150.105 335.377 150.963 334.475 151.567C333.574 152.171 332.513 152.493 331.429 152.493C329.975 152.493 328.58 151.914 327.551 150.884C326.523 149.853 325.945 148.456 325.945 146.999Z" fill="#1E66D0"/>
<path d="M353.172 183.014C353.172 181.927 353.493 180.865 354.096 179.961C354.699 179.058 355.555 178.354 356.557 177.938C357.559 177.522 358.662 177.413 359.725 177.625C360.789 177.837 361.766 178.36 362.533 179.129C363.3 179.897 363.822 180.876 364.034 181.942C364.245 183.008 364.137 184.112 363.722 185.116C363.307 186.12 362.604 186.978 361.702 187.582C360.8 188.186 359.74 188.508 358.655 188.508C357.201 188.508 355.806 187.929 354.778 186.899C353.75 185.868 353.172 184.471 353.172 183.014Z" fill="#1E66D0"/>
<path d="M159.245 97.6605H152.473V88.9521C152.226 80.4208 148.671 72.3216 142.561 66.3745C136.451 60.4274 128.268 57.1006 119.75 57.1006C111.231 57.1006 103.048 60.4274 96.9384 66.3745C90.8285 72.3216 87.2728 80.4208 87.0263 88.9521V97.6605H80.8847C79.1733 97.6605 77.5316 98.3398 76.3189 99.5497C75.1062 100.76 74.4213 102.402 74.4141 104.116V167.3C74.4213 169.015 75.1062 170.657 76.3189 171.867C77.5316 173.077 79.1733 173.756 80.8847 173.756H159.245C160.954 173.756 162.593 173.076 163.801 171.865C165.009 170.654 165.688 169.012 165.688 167.3V104.116C165.688 103.268 165.522 102.429 165.198 101.646C164.874 100.863 164.399 100.151 163.801 99.5514C163.203 98.9519 162.492 98.4764 161.711 98.1519C160.929 97.8275 160.091 97.6605 159.245 97.6605ZM126.508 145.268C126.508 146.98 125.829 148.622 124.621 149.833C123.413 151.044 121.774 151.724 120.065 151.724C118.356 151.724 116.717 151.044 115.509 149.833C114.3 148.622 113.622 146.98 113.622 145.268V126.038C113.622 124.326 114.3 122.684 115.509 121.473C116.717 120.263 118.356 119.583 120.065 119.583C121.774 119.583 123.413 120.263 124.621 121.473C125.829 122.684 126.508 124.326 126.508 126.038V145.268ZM139.559 97.6605H99.9401V88.9521C100.131 83.8159 102.301 78.9537 105.996 75.3876C109.69 71.8214 114.62 69.8289 119.75 69.8289C124.879 69.8289 129.809 71.8214 133.504 75.3876C137.198 78.9537 139.368 83.8159 139.559 88.9521V97.6605Z" fill="white"/>
</g>
</svg>
