<svg width="96" height="96" viewBox="0 0 96 96" fill="none" xmlns="http://www.w3.org/2000/svg">
<g clip-path="url(#clip0_287_248)">
<path d="M72 44C74.8 44 77.48 44.4 80 45.16V40C80 35.6 76.4 32 72 32H68V24C68 12.96 59.04 4 48 4C36.96 4 28 12.96 28 24V32H24C19.6 32 16 35.6 16 40V80C16 84.4 19.6 88 24 88H49.04C45.88 83.48 44 77.96 44 72C44 56.52 56.52 44 72 44ZM35.6 24C35.6 17.16 41.16 11.6 48 11.6C54.84 11.6 60.4 17.16 60.4 24V32H35.6V24Z" fill="white"/>
<path d="M72 52C60.96 52 52 60.96 52 72C52 83.04 60.96 92 72 92C83.04 92 92 83.04 92 72C92 60.96 83.04 52 72 52ZM72 60C75.32 60 78 62.68 78 66C78 69.32 75.32 72 72 72C68.68 72 66 69.32 66 66C66 62.68 68.68 60 72 60ZM72 84C67.88 84 64.24 81.92 62.08 78.72C65 77.04 68.36 76 72 76C75.64 76 79 77.04 81.92 78.72C79.76 81.92 76.12 84 72 84Z" fill="white"/>
</g>
<defs>
<clipPath id="clip0_287_248">
<rect width="96" height="96" fill="white"/>
</clipPath>
</defs>
</svg>
