<svg width="267" height="52" viewBox="0 0 267 52" fill="none" xmlns="http://www.w3.org/2000/svg">
<path d="M51.9694 47.8337C49.4507 46.0013 47.3743 43.636 45.8906 40.9092C47.3941 43.6149 49.4573 45.9747 51.9446 47.8337" fill="#1E66D0"/>
<path d="M94.8413 21.6669C95.1628 35.8201 83.8462 49.2422 69.5767 51.6371C69.3195 51.6812 69.0821 51.7156 68.815 51.7499C65.3821 52.2462 61.8818 52.0035 58.5518 51.0383C58.7055 50.8932 58.8117 50.7056 58.8566 50.4998C58.9015 50.294 58.883 50.0797 58.8036 49.8844C58.7241 49.6892 58.5874 49.5222 58.4111 49.4051C58.2348 49.2879 58.0271 49.226 57.8149 49.2275H21.4215C21.3822 49.1136 21.3605 48.9945 21.3572 48.8741C21.3572 48.5943 21.4693 48.3259 21.6687 48.1281C21.8681 47.9302 22.1386 47.819 22.4206 47.819H51.9686C49.4828 45.9643 47.4198 43.6097 45.9146 40.9092C45.5274 40.2264 45.1805 39.5218 44.8759 38.799C44.6632 38.3083 44.4802 37.8175 44.3318 37.3955C43.9822 36.3322 43.7128 35.2447 43.5256 34.1418C43.299 32.8858 43.1716 31.6141 43.1448 30.3385C43.1448 30.1863 43.1448 30.0342 43.1448 29.887H50.0347C50.3167 29.887 50.5872 29.7758 50.7866 29.5779C50.9861 29.3801 51.0981 29.1117 51.0981 28.8319C51.0981 28.552 50.9861 28.2836 50.7866 28.0858C50.5872 27.8879 50.3167 27.7767 50.0347 27.7767H0.0642992C0.0253775 27.6628 0.00370872 27.5437 0 27.4234C-1.52209e-06 27.2851 0.0275395 27.1481 0.0810413 27.0204C0.134543 26.8926 0.212952 26.7766 0.311764 26.679C0.410576 26.5815 0.527844 26.5042 0.656834 26.4517C0.785825 26.3992 0.923995 26.3725 1.06341 26.3732H43.3426C43.6024 24.3856 44.0749 22.4312 44.7523 20.5431C44.8116 20.3762 44.8759 20.2192 44.9353 20.0523C45.1232 19.5616 45.3112 19.1248 45.4991 18.688C45.8354 17.9126 46.1767 17.2158 46.4883 16.5778C46.7554 16.0576 47.0126 15.5963 47.255 15.1742C47.7397 14.3596 48.2623 13.5662 48.8229 12.7941L48.8526 12.7548V12.7205C50.7466 10.1257 53.0243 7.82931 55.6089 5.90886H61.3068C61.5889 5.90886 61.8593 5.7977 62.0588 5.59983C62.2582 5.40195 62.3702 5.13358 62.3702 4.85375C62.3702 4.57391 62.2582 4.30554 62.0588 4.10767C61.8593 3.9098 61.5889 3.79863 61.3068 3.79863H11.3513C11.328 3.679 11.323 3.55658 11.3364 3.43548C11.3364 3.15564 11.4485 2.88727 11.6479 2.6894C11.8473 2.49152 12.1178 2.38036 12.3999 2.38036H61.6531C63.8088 1.43509 66.0752 0.760809 68.3995 0.373188C68.6468 0.32902 68.8941 0.28976 69.1513 0.255408C83.0944 -1.7076 94.5149 7.7639 94.8413 21.6669Z" fill="#1E66D0"/>
<path d="M45.5053 18.6934C45.3173 19.1301 45.1294 19.5816 44.9414 20.0576C45.1096 19.5963 45.2975 19.1449 45.4904 18.6934H45.5053Z" fill="#1E66D0"/>
<path d="M48.8413 12.7988C48.2841 13.5709 47.7615 14.3643 47.2734 15.179C47.7471 14.3538 48.2724 13.5588 48.8463 12.7988" fill="#1E66D0"/>
<path d="M44.3533 37.3953C43.9654 36.342 43.6886 35.2516 43.5273 34.1416C43.7226 35.2451 44.0003 36.3327 44.3583 37.3953" fill="#1E66D0"/>
<path d="M93.111 46.1455H92.4531V50.6261H93.111V46.1455Z" fill="#1E66D0"/>
<path d="M101.317 50.6212L99.0818 47.1614H99.0719V50.6212H98.4141V46.1455H99.1312L101.327 49.5513H101.342V46.1455H102V50.6212H101.317Z" fill="#1E66D0"/>
<path d="M108.35 50.7096C108.162 50.7153 107.976 50.6824 107.802 50.613C107.628 50.5436 107.471 50.4392 107.34 50.3064C107.209 50.1735 107.107 50.0152 107.041 49.8414C106.975 49.6675 106.945 49.4819 106.955 49.2963H107.618C107.607 49.3985 107.617 49.5019 107.649 49.5998C107.681 49.6977 107.733 49.7879 107.802 49.8647C107.871 49.9414 107.955 50.003 108.049 50.0454C108.144 50.0878 108.246 50.1101 108.35 50.1109C108.449 50.1133 108.548 50.095 108.639 50.057C108.731 50.019 108.814 49.9623 108.882 49.8905C108.95 49.8188 109.002 49.7336 109.035 49.6405C109.068 49.5474 109.08 49.4485 109.072 49.3503C109.072 48.8595 108.726 48.7663 108.35 48.619C107.647 48.354 107.084 48.1283 107.084 47.2744C107.085 47.1116 107.119 46.9507 107.183 46.801C107.248 46.6513 107.342 46.5159 107.46 46.4026C107.577 46.2894 107.717 46.2005 107.87 46.1412C108.023 46.0819 108.186 46.0534 108.35 46.0573C108.519 46.0462 108.689 46.0705 108.849 46.1288C109.008 46.187 109.153 46.2778 109.275 46.3954C109.397 46.5129 109.492 46.6545 109.555 46.811C109.618 46.9675 109.647 47.1354 109.641 47.3038H108.983C108.989 47.219 108.977 47.1338 108.948 47.0539C108.919 46.974 108.873 46.9012 108.813 46.8404C108.753 46.7796 108.681 46.7321 108.601 46.7012C108.521 46.6702 108.435 46.6565 108.35 46.6609C108.189 46.6635 108.035 46.7288 107.922 46.8426C107.81 46.9564 107.746 47.1098 107.746 47.2695C107.746 48.2215 109.725 47.6523 109.725 49.3503C109.731 49.5317 109.699 49.7125 109.632 49.8813C109.564 50.05 109.462 50.2031 109.332 50.3308C109.202 50.4585 109.047 50.5581 108.876 50.6233C108.705 50.6885 108.523 50.7179 108.34 50.7096" fill="#1E66D0"/>
<path d="M115.848 46.7442V50.6212H115.19V46.7442H114.324V46.1455H116.713V46.7442H115.848Z" fill="#1E66D0"/>
<path d="M124.401 50.6212L123.906 49.306H122.284L121.789 50.6212H121.082L122.798 46.1309H123.392L125.103 50.6065L124.401 50.6212ZM123.105 46.9897L122.526 48.7024H123.694L123.105 46.9897Z" fill="#1E66D0"/>
<path d="M132.927 50.6212L130.696 47.1614H130.681V50.6212H130.023V46.1455H130.746L132.942 49.5513H132.952V46.1455H133.609V50.6212H132.927Z" fill="#1E66D0"/>
<path d="M140.028 46.7442V50.6212H139.366V46.7442H138.5V46.1455H140.894V46.7442H140.028Z" fill="#1E66D0"/>
<path d="M152.937 46.7442V50.6212H152.28V46.7442H151.414V46.1455H153.803V46.7442H152.937Z" fill="#1E66D0"/>
<path d="M160.802 48.8696C160.661 48.9218 160.512 48.95 160.362 48.953L161.623 50.6216H160.802L159.318 48.5457V50.6216H158.66V46.1312H160.055C160.489 46.0937 160.921 46.2277 161.257 46.5041C161.393 46.6447 161.501 46.8108 161.572 46.9927C161.643 47.1747 161.677 47.369 161.672 47.5642C161.694 47.8424 161.623 48.12 161.469 48.3536C161.315 48.5871 161.087 48.7634 160.822 48.8548M160.015 46.7299H159.318V48.4426H159.758C160.342 48.4426 161 48.2807 161 47.5642C161 46.9949 160.505 46.7299 160.01 46.7299" fill="#1E66D0"/>
<path d="M169.65 50.6212L169.155 49.306H167.533L167.038 50.6212H166.336L168.052 46.1309H168.661L170.377 50.6065L169.65 50.6212ZM168.354 46.9897L167.775 48.7024H168.938L168.354 46.9897Z" fill="#1E66D0"/>
<path d="M178.185 50.6212L175.954 47.1614H175.939V50.6212H175.281V46.1455H175.998L178.199 49.5513H178.209V46.1455H178.867V50.6212H178.185Z" fill="#1E66D0"/>
<path d="M185.216 50.7096C185.029 50.7154 184.843 50.6825 184.669 50.613C184.496 50.5435 184.339 50.439 184.208 50.3061C184.077 50.1732 183.976 50.0149 183.91 49.841C183.845 49.6672 183.816 49.4817 183.826 49.2963H184.489C184.478 49.3985 184.489 49.5019 184.52 49.5998C184.552 49.6977 184.604 49.7879 184.673 49.8647C184.742 49.9414 184.826 50.003 184.921 50.0454C185.015 50.0878 185.117 50.1101 185.221 50.1109C185.321 50.114 185.42 50.0962 185.512 50.0585C185.605 50.0209 185.688 49.9643 185.757 49.8924C185.825 49.8206 185.878 49.7351 185.911 49.6417C185.944 49.5482 185.957 49.4489 185.948 49.3503C185.948 48.8595 185.597 48.7663 185.221 48.619C184.519 48.354 183.96 48.1283 183.96 47.2744C183.961 47.112 183.995 46.9515 184.059 46.8022C184.123 46.6528 184.217 46.5176 184.334 46.4044C184.452 46.2912 184.59 46.2022 184.743 46.1427C184.895 46.0831 185.057 46.0541 185.221 46.0573C185.391 46.0462 185.561 46.0705 185.72 46.1288C185.879 46.187 186.025 46.2778 186.146 46.3954C186.268 46.5129 186.363 46.6545 186.426 46.811C186.489 46.9675 186.519 47.1354 186.512 47.3038H185.854C185.861 47.219 185.849 47.1338 185.819 47.0539C185.79 46.974 185.744 46.9012 185.684 46.8404C185.624 46.7796 185.552 46.7321 185.472 46.7012C185.392 46.6702 185.307 46.6565 185.221 46.6609C185.06 46.6635 184.907 46.7288 184.794 46.8426C184.681 46.9564 184.618 47.1098 184.618 47.2695C184.618 48.2215 186.596 47.6523 186.596 49.3503C186.603 49.5319 186.572 49.7131 186.505 49.8821C186.438 50.0512 186.336 50.2046 186.205 50.3324C186.075 50.4603 185.919 50.5599 185.748 50.6248C185.577 50.6897 185.394 50.7186 185.211 50.7096" fill="#1E66D0"/>
<path d="M194.549 50.6212L194.054 49.306H192.402L191.907 50.6212H191.215L192.941 46.1309H193.535L195.246 50.6065L194.549 50.6212ZM193.248 46.9897L192.669 48.7024H193.836L193.248 46.9897Z" fill="#1E66D0"/>
<path d="M203.246 47.2894C203.097 47.096 202.906 46.9389 202.686 46.8301C202.467 46.7212 202.225 46.6635 201.98 46.6612C201.756 46.6632 201.535 46.7091 201.329 46.7964C201.122 46.8837 200.936 47.0106 200.78 47.1699C200.623 47.3291 200.5 47.5175 200.418 47.7242C200.335 47.9308 200.295 48.1517 200.298 48.374C200.293 48.8221 200.464 49.2545 200.776 49.5791C201.087 49.9037 201.514 50.0946 201.965 50.1112C202.202 50.1063 202.434 50.0507 202.647 49.9482C202.859 49.8457 203.047 49.6987 203.197 49.5174H204.008C203.806 49.8801 203.509 50.1821 203.149 50.3919C202.789 50.6017 202.378 50.7116 201.96 50.7099C201.341 50.6996 200.75 50.4478 200.316 50.0088C199.882 49.5699 199.639 48.9791 199.641 48.3642C199.64 48.0611 199.7 47.7609 199.816 47.4807C199.933 47.2006 200.104 46.9461 200.32 46.7317C200.536 46.5174 200.793 46.3476 201.075 46.2319C201.357 46.1162 201.66 46.057 201.965 46.0576C202.459 46.0633 202.94 46.2154 203.345 46.4944C203.637 46.701 203.874 46.9735 204.038 47.2894H203.246Z" fill="#1E66D0"/>
<path d="M210.142 46.7442V50.6212H209.479V46.7442H208.613V46.1455H211.007V46.7442H210.142Z" fill="#1E66D0"/>
<path d="M216.56 46.1455H215.902V50.6261H216.56V46.1455Z" fill="#1E66D0"/>
<path d="M223.984 50.7099C223.52 50.709 223.067 50.5713 222.681 50.3145C222.296 50.0576 221.996 49.6931 221.82 49.2671C221.644 48.8411 221.599 48.3728 221.691 47.9215C221.784 47.4702 222.009 47.0562 222.338 46.732C222.668 46.4078 223.087 46.1879 223.543 46.1002C223.998 46.0125 224.47 46.061 224.898 46.2394C225.325 46.4179 225.69 46.7183 225.946 47.1027C226.201 47.487 226.336 47.938 226.333 48.3985C226.328 49.0133 226.078 49.6012 225.638 50.0341C225.198 50.4671 224.604 50.71 223.984 50.7099ZM223.984 46.6612C223.655 46.6537 223.331 46.7466 223.057 46.9274C222.783 47.1082 222.571 47.3682 222.451 47.6722C222.348 47.8958 222.294 48.1382 222.292 48.3838C222.295 48.634 222.349 48.881 222.451 49.1101C222.583 49.4166 222.806 49.6762 223.09 49.8549C223.374 50.0335 223.705 50.1229 224.041 50.1112C224.377 50.0995 224.701 49.9874 224.972 49.7894C225.242 49.5915 225.446 49.3171 225.557 49.0021C225.632 48.8113 225.671 48.6083 225.671 48.4034C225.679 48.1783 225.641 47.9538 225.56 47.7434C225.479 47.533 225.356 47.3409 225.199 47.1784C225.041 47.0159 224.853 46.8865 224.644 46.7976C224.436 46.7088 224.211 46.6624 223.984 46.6612Z" fill="#1E66D0"/>
<path d="M234.317 50.6212L232.082 47.1614H232.072V50.6212H231.414V46.1455H232.131L234.327 49.5513H234.342V46.1455H235V50.6212H234.317Z" fill="#1E66D0"/>
<path d="M241.368 50.7096C241.181 50.7146 240.996 50.6812 240.822 50.6115C240.649 50.5417 240.492 50.4372 240.362 50.3045C240.231 50.1718 240.13 50.0137 240.064 49.8401C239.998 49.6666 239.969 49.4815 239.978 49.2962H240.636C240.625 49.3985 240.636 49.5019 240.667 49.5998C240.699 49.6977 240.751 49.7879 240.82 49.8647C240.889 49.9414 240.973 50.003 241.068 50.0454C241.162 50.0878 241.265 50.1101 241.368 50.1109C241.468 50.114 241.567 50.0962 241.66 50.0585C241.752 50.0208 241.835 49.9642 241.904 49.8924C241.972 49.8205 242.025 49.7351 242.058 49.6417C242.091 49.5482 242.104 49.4489 242.095 49.3502C242.095 48.8595 241.749 48.7662 241.368 48.619C240.666 48.354 240.107 48.1283 240.107 47.2744C240.108 47.112 240.142 46.9515 240.206 46.8021C240.271 46.6528 240.364 46.5176 240.481 46.4044C240.599 46.2912 240.737 46.2022 240.89 46.1426C241.042 46.083 241.205 46.054 241.368 46.0573C241.538 46.0462 241.708 46.0706 241.868 46.1288C242.027 46.1869 242.173 46.2777 242.295 46.3952C242.417 46.5126 242.513 46.6542 242.577 46.8107C242.64 46.9672 242.67 47.1352 242.664 47.3038H242.006C242.013 47.2186 242.001 47.1329 241.971 47.0527C241.942 46.9724 241.895 46.8994 241.835 46.8385C241.774 46.7776 241.701 46.7302 241.621 46.6996C241.54 46.6689 241.454 46.6558 241.368 46.6609C241.208 46.6647 241.055 46.7304 240.942 46.844C240.83 46.9575 240.766 47.1101 240.765 47.2694C240.765 48.2215 242.743 47.6522 242.743 49.3502C242.75 49.5319 242.719 49.713 242.652 49.8821C242.585 50.0512 242.483 50.2046 242.352 50.3324C242.222 50.4603 242.066 50.5598 241.895 50.6248C241.724 50.6897 241.541 50.7186 241.358 50.7096" fill="#1E66D0"/>
<path d="M99.3156 42.3516C97.7538 42.3827 96.2017 42.1029 94.7507 41.5289C93.2997 40.9549 91.9794 40.0983 90.8676 39.0096C89.741 37.9472 88.8509 36.6626 88.2546 35.2385C87.6584 33.8144 87.3691 32.2821 87.4054 30.7404C87.3718 29.1991 87.6624 27.6677 88.2585 26.2439C88.8546 24.8202 89.7432 23.5353 90.8676 22.4713C93.1553 20.3249 96.1844 19.1289 99.3329 19.1289C102.481 19.1289 105.51 20.3249 107.798 22.4713C108.923 23.5353 109.811 24.8202 110.407 26.2439C111.003 27.6677 111.294 29.1991 111.26 30.7404C111.295 32.2819 111.004 33.8134 110.408 35.2373C109.812 36.6611 108.923 37.9459 107.798 39.0096C106.683 40.1039 105.357 40.9638 103.9 41.5381C102.443 42.1123 100.883 42.389 99.3156 42.3516ZM96.6298 33.5181C97.3488 34.2103 98.3113 34.5975 99.3131 34.5975C100.315 34.5975 101.277 34.2103 101.996 33.5181C102.347 33.1436 102.619 32.7041 102.797 32.2249C102.975 31.7456 103.056 31.2361 103.035 30.7257C103.056 30.2153 102.975 29.7059 102.797 29.2267C102.618 28.7475 102.346 28.3079 101.996 27.9333C101.276 27.2434 100.314 26.8578 99.3131 26.8578C98.312 26.8578 97.35 27.2434 96.6298 27.9333C96.2798 28.3079 96.0079 28.7475 95.8297 29.2267C95.6514 29.7059 95.5704 30.2153 95.5912 30.7257C95.5701 31.2361 95.651 31.7456 95.8293 32.2249C96.0075 32.7041 96.2796 33.1436 96.6298 33.5181Z" fill="white"/>
<path d="M138.412 19.748H147.057L140.627 41.7386H132.293L129.548 31.4034L126.798 41.7386H118.464L112.039 19.748H120.68L123.252 31.9285L126.442 19.748H132.649L135.84 31.9285L138.412 19.748Z" fill="white"/>
<path d="M155.919 33.5132C156.624 34.9789 158.131 35.7117 160.439 35.7117C161.825 35.7021 163.161 35.2027 164.208 34.3033L169.57 38.7691C167.354 41.1443 164.222 42.332 160.172 42.332C156.39 42.332 153.355 41.2409 151.067 39.0587C149.943 37.9995 149.056 36.7178 148.464 35.2966C147.871 33.8754 147.587 32.3465 147.629 30.8091C147.59 29.2636 147.869 27.7263 148.448 26.2911C149.027 24.8558 149.895 23.5526 150.998 22.4608C152.101 21.3689 153.417 20.5114 154.865 19.9403C156.313 19.3692 157.863 19.0966 159.421 19.1391C162.787 19.1391 165.557 20.2318 167.73 22.4173C168.805 23.5025 169.649 24.7923 170.209 26.2092C170.769 27.626 171.034 29.1406 170.989 30.6619C170.99 31.6265 170.87 32.5875 170.633 33.523L155.919 33.5132ZM155.8 28.2768H163.219C162.715 26.52 161.518 25.6415 159.628 25.6415C157.739 25.6415 156.463 26.52 155.8 28.2768Z" fill="white"/>
<path d="M181.63 24.0123C181.987 22.5971 182.855 21.3609 184.069 20.5377C185.311 19.7083 186.781 19.2782 188.278 19.306V28.1051C186.65 27.8373 184.982 28.2068 183.624 29.1357C182.305 30.0583 181.645 31.5306 181.645 33.5525V41.7382H173.43V19.7476H181.63V24.0123Z" fill="white"/>
<path d="M203.57 10.9483C206.554 10.8602 209.452 11.9429 211.637 13.9616C213.793 15.9736 214.872 18.6499 214.872 21.9903C214.872 25.3306 213.793 28.0052 211.637 30.014C209.454 32.035 206.554 33.1181 203.57 33.0272H200.024V41.7381H191.16V10.9483H203.57ZM203.57 24.498C203.89 24.5035 204.207 24.446 204.504 24.3289C204.801 24.2118 205.072 24.0374 205.301 23.8158C205.539 23.5759 205.724 23.29 205.846 22.976C205.968 22.6619 206.023 22.3264 206.008 21.9903C206.023 21.6541 205.968 21.3186 205.846 21.0045C205.724 20.6905 205.539 20.4046 205.301 20.1647C205.073 19.942 204.802 19.7668 204.505 19.6497C204.208 19.5325 203.89 19.4757 203.57 19.4825H200.024V24.498H203.57Z" fill="white"/>
<path d="M231.764 19.7479H239.965V41.7384H231.764V39.7509C230.343 41.4783 228.365 42.342 225.829 42.342C224.437 42.379 223.056 42.1013 221.788 41.5299C220.521 40.9585 219.401 40.1085 218.514 39.0442C216.624 36.8456 215.68 34.0745 215.68 30.7309C215.68 27.3872 216.624 24.6177 218.514 22.4224C219.402 21.3609 220.521 20.5137 221.788 19.9449C223.054 19.3761 224.434 19.1006 225.824 19.1393C228.366 19.1393 230.345 20.0047 231.759 21.7354L231.764 19.7479ZM224.959 33.6901C225.332 34.0664 225.777 34.3652 226.268 34.5692C226.758 34.7732 227.285 34.8783 227.817 34.8783C228.35 34.8783 228.876 34.7732 229.367 34.5692C229.858 34.3652 230.303 34.0664 230.676 33.6901C231.377 32.8666 231.762 31.8235 231.762 30.7456C231.762 29.6677 231.377 28.6246 230.676 27.8011C230.303 27.4248 229.858 27.126 229.367 26.922C228.876 26.718 228.35 26.6129 227.817 26.6129C227.285 26.6129 226.758 26.718 226.268 26.922C225.777 27.126 225.332 27.4248 224.959 27.8011C224.26 28.6259 223.878 29.6685 223.878 30.7456C223.878 31.8227 224.26 32.8653 224.959 33.6901Z" fill="white"/>
<path d="M257.69 19.748H266.999L259.466 41.7141C258.371 44.9105 256.672 47.2187 254.367 48.6386C252.062 50.0585 249.018 50.6948 245.236 50.5476V42.8379C246.4 42.8731 247.563 42.7626 248.698 42.5091C249.449 42.3185 250.119 41.8936 250.608 41.2969L241.734 19.748H251.043L255 31.4917L257.69 19.748Z" fill="white"/>
<path d="M77.5336 10.8359C80.7288 10.8359 83.1309 11.8485 84.7401 13.8737C86.3492 15.8989 86.7086 18.5947 85.8183 21.9613C85.0277 25.185 83.1433 28.0407 80.4815 30.0488C77.9725 32.0141 74.869 33.0826 71.6725 33.0817H68.1558L65.846 41.8563H57.0469L65.2178 10.8359H77.5336ZM73.9378 24.4837C74.6312 24.4755 75.301 24.2331 75.8371 23.7967C76.4303 23.3333 76.8485 22.6849 77.0241 21.9564C77.1348 21.6546 77.1723 21.3312 77.1336 21.0123C77.095 20.6934 76.9812 20.3881 76.8016 20.121C76.6225 19.89 76.3891 19.7061 76.1218 19.5855C75.8545 19.4649 75.5614 19.4111 75.2683 19.429H71.7516L70.4211 24.4837H73.9378Z" fill="white"/>
</svg>
