<svg width="372" height="327" viewBox="0 0 372 327" fill="none" xmlns="http://www.w3.org/2000/svg">
<path d="M239.03 119.515C239.03 95.8773 232.021 72.7703 218.888 53.1161C205.756 33.462 187.09 18.1434 165.252 9.0976C143.413 0.0517865 119.383 -2.31502 96.1989 2.2965C73.0153 6.90802 51.7197 18.2907 35.0052 35.0052C18.2907 51.7197 6.90802 73.0153 2.2965 96.1989C-2.31502 119.383 0.0517865 143.413 9.0976 165.252C18.1434 187.09 33.462 205.756 53.1161 218.888C72.7703 232.021 95.8773 239.03 119.515 239.03C151.202 238.995 181.58 226.392 203.986 203.986C226.392 181.58 238.995 151.202 239.03 119.515ZM28.1213 119.515C28.1213 101.439 33.4814 83.7691 43.5239 68.7394C53.5664 53.7098 67.8402 41.9956 84.5403 35.0782C101.24 28.1608 119.617 26.3509 137.345 29.8774C155.074 33.4038 171.359 42.1082 184.14 54.8899C196.922 67.6716 205.627 83.9564 209.153 101.685C212.679 119.414 210.87 137.79 203.952 154.49C197.035 171.19 185.321 185.464 170.291 195.506C155.261 205.549 137.591 210.909 119.515 210.909C95.2844 210.882 72.0539 201.244 54.9201 184.11C37.7864 166.976 28.1486 143.746 28.1213 119.515Z" fill="white"/>
<path d="M344.484 224.97C320.846 224.97 297.739 231.979 278.085 245.112C258.431 258.244 243.112 276.91 234.066 298.748C225.021 320.587 222.654 344.617 227.265 367.801C231.877 390.985 243.259 412.28 259.974 428.995C276.688 445.709 297.984 457.092 321.168 461.704C344.351 466.315 368.382 463.948 390.22 454.902C412.059 445.857 430.725 430.538 443.857 410.884C456.99 391.23 463.999 368.123 463.999 344.485C463.964 312.798 451.361 282.42 428.955 260.014C406.549 237.608 376.17 225.005 344.484 224.97ZM344.484 435.879C326.408 435.879 308.738 430.519 293.708 420.476C278.679 410.434 266.964 396.16 260.047 379.46C253.13 362.76 251.32 344.383 254.846 326.655C258.373 308.926 267.077 292.641 279.859 279.86C292.64 267.078 308.925 258.373 326.654 254.847C344.383 251.321 362.759 253.13 379.459 260.048C396.159 266.965 410.433 278.679 420.475 293.709C430.518 308.739 435.878 326.409 435.878 344.485C435.851 368.716 426.213 391.946 409.079 409.08C391.945 426.214 368.715 435.851 344.484 435.879Z" fill="white"/>
<path d="M373.282 16.3601C371.738 15.3476 370.009 14.6493 368.195 14.3052C366.38 13.9611 364.516 13.978 362.708 14.3548C360.9 14.7317 359.184 15.4611 357.658 16.5015C356.132 17.5418 354.826 18.8727 353.815 20.418L86.657 428.176C85.6103 429.719 84.8812 431.456 84.5122 433.285C84.1432 435.113 84.1418 436.997 84.5079 438.826C84.874 440.655 85.6004 442.393 86.6447 443.938C87.6891 445.484 89.0305 446.806 90.5909 447.828C92.1513 448.85 93.8994 449.552 95.7335 449.891C97.5676 450.231 99.451 450.203 101.274 449.807C103.097 449.412 104.823 448.658 106.352 447.589C107.88 446.521 109.181 445.158 110.178 443.582L377.337 35.8242C379.38 32.7053 380.1 28.9027 379.34 25.2527C378.58 21.6026 376.401 18.4039 373.282 16.3601Z" fill="white"/>
<path d="M396.609 292.362C393.972 289.725 390.396 288.244 386.667 288.244C382.939 288.244 379.363 289.725 376.726 292.362L344.486 324.603L312.245 292.362C309.597 289.78 306.039 288.345 302.341 288.369C298.643 288.392 295.102 289.872 292.487 292.487C289.872 295.102 288.393 298.642 288.369 302.34C288.346 306.038 289.781 309.597 292.362 312.245L324.603 344.485L292.362 376.725C291.029 378.025 289.968 379.576 289.239 381.289C288.511 383.002 288.129 384.842 288.117 386.704C288.106 388.565 288.464 390.41 289.171 392.132C289.877 393.854 290.919 395.419 292.235 396.735C293.552 398.051 295.116 399.093 296.838 399.8C298.56 400.507 300.405 400.865 302.267 400.853C304.128 400.841 305.969 400.46 307.682 399.731C309.395 399.003 310.946 397.941 312.245 396.608L344.486 364.367L376.726 396.608C379.374 399.19 382.932 400.625 386.631 400.601C390.329 400.578 393.869 399.098 396.484 396.483C399.099 393.868 400.578 390.328 400.602 386.63C400.625 382.932 399.191 379.373 396.609 376.725L364.368 344.485L396.609 312.245C399.245 309.608 400.726 306.032 400.726 302.303C400.726 298.574 399.245 294.998 396.609 292.362Z" fill="white"/>
</svg>
