<svg width="57" height="33" viewBox="0 0 57 33" fill="none" xmlns="http://www.w3.org/2000/svg">
<path d="M41.7113 0.0421775C41.1621 0.119301 40.6299 0.297388 40.1786 0.568022L35.7267 3.11732H35.7238C35.7181 3.12012 35.7181 3.12573 35.7125 3.12854L25.4263 0.403959C25.3809 0.391338 25.3283 0.384327 25.2744 0.384327C25.2389 0.384327 25.2035 0.387132 25.1694 0.392741H25.1737C24.2001 0.203437 23.096 0.347868 22.2601 0.847071L1.19096 13.0018C1.1867 13.0046 1.18386 13.0074 1.18102 13.0088L1.18244 13.0074C0.0471007 13.6875 -0.338916 15.1627 0.32526 16.2999L9.37536 31.7878C9.70035 32.3445 10.2396 32.7497 10.8698 32.9166C11.4814 33.0779 12.1342 33.0049 12.6962 32.7007C12.7033 32.6978 12.7076 32.695 12.7104 32.6936L12.7076 32.695L24.1916 26.1984L27.2882 31.5059C27.2896 31.5073 27.2896 31.5073 27.2911 31.5087C27.6288 32.0851 28.1809 32.4721 28.7855 32.6319C29.3758 32.789 30.0329 32.7315 30.6119 32.4188C30.619 32.416 30.6233 32.4132 30.6261 32.4118L30.6233 32.4132L51.7534 20.466C52.683 19.9598 53.4494 18.9922 53.7247 17.9798L56.9178 6.20648C57.0895 5.57126 56.9845 4.91641 56.6737 4.38496C56.3644 3.8549 55.8463 3.43423 55.1992 3.26175C55.1538 3.24913 55.1013 3.24212 55.0474 3.24212C54.8941 3.24212 54.755 3.29961 54.65 3.39356L54.8629 3.18042L43.3377 0.126313C42.824 -0.00970599 42.2591 -0.0349465 41.7113 0.0421775ZM42.7147 2.42461L54.5705 5.56285C54.5748 5.56425 54.5847 5.57126 54.5875 5.57687C54.5918 5.58388 54.5904 5.57967 54.5875 5.59089L51.3972 17.3628C51.3348 17.5956 50.8054 18.2631 50.5769 18.3865C50.5713 18.3893 50.5698 18.3921 50.567 18.3935L50.5684 18.3921L29.4468 30.3365C29.4383 30.3407 29.3787 30.3196 29.3773 30.3168L26.2806 25.0205L33.8306 20.7507C34.763 20.2458 35.5337 19.2741 35.8104 18.2588L39.0035 6.48693C39.2207 5.68765 38.9794 4.88135 38.4628 4.29802L41.4034 2.61391C41.4076 2.61111 41.4105 2.6083 41.4133 2.6069L41.4119 2.6083C41.6248 2.4807 42.4777 2.36291 42.7147 2.42461ZM24.8032 2.70786L36.6591 5.8461C36.669 5.84891 36.696 5.86714 36.7087 5.88677C36.7173 5.90079 36.713 5.90219 36.7172 5.88677C36.7158 5.89098 36.7144 5.89939 36.713 5.9078V5.91201L33.5255 17.6559C33.4986 17.7568 33.3666 18.0008 33.1906 18.2098C33.0146 18.4187 32.7875 18.6024 32.6641 18.6697C32.6598 18.6725 32.657 18.6753 32.6541 18.6767L32.6556 18.6753L11.5339 30.6169C11.5424 30.6057 11.453 30.5762 11.4672 30.6001C11.4658 30.5987 11.4658 30.5987 11.4644 30.5973L2.41145 15.1094C2.41003 15.1066 2.43558 15.0421 2.42281 15.0491L23.4948 2.89436C23.5019 2.89156 23.5061 2.88875 23.509 2.88735L23.5061 2.88875C23.7147 2.76395 24.5677 2.64476 24.8061 2.70786H24.8032ZM48.9321 5.62455C47.7585 5.78861 46.7324 6.62576 46.4074 7.82328C45.9745 9.42045 46.9453 11.0793 48.5617 11.507C50.1782 11.9347 51.857 10.9755 52.2899 9.37838C52.507 8.57909 52.3708 7.76018 51.9819 7.09411C51.5931 6.42804 50.9431 5.9078 50.1356 5.69466C49.7311 5.58809 49.3238 5.56986 48.9321 5.62455ZM31.0207 5.90079C29.8456 6.06486 28.8181 6.9048 28.4931 8.10233C28.0603 9.6995 29.0296 11.3612 30.6474 11.7889C32.2653 12.2165 33.947 11.256 34.3813 9.65743C34.5984 8.85674 34.4593 8.03782 34.0705 7.37316C33.6816 6.70849 33.0331 6.18545 32.2241 5.9709C31.8197 5.86433 31.4124 5.8447 31.0207 5.89939V5.90079ZM49.514 7.99295C49.6885 8.03923 49.8177 8.14299 49.8986 8.28322C49.9795 8.42344 50.0093 8.59171 49.9624 8.76279C49.8702 9.10354 49.5267 9.29845 49.1805 9.2059C48.8342 9.11335 48.6383 8.77821 48.732 8.43606C48.8243 8.09532 49.1677 7.9004 49.514 7.99295ZM31.6025 8.272C31.7771 8.31828 31.9062 8.42204 31.9871 8.56227C32.068 8.70249 32.0978 8.87076 32.051 9.04184C31.9587 9.38259 31.6153 9.5775 31.269 9.48495C30.9242 9.3938 30.7269 9.05586 30.8206 8.71511C30.9142 8.37437 31.2562 8.17945 31.6025 8.272Z" fill="white"/>
</svg>
