<svg width="45" height="45" viewBox="0 0 45 45" fill="none" xmlns="http://www.w3.org/2000/svg">
<path d="M45 22.5C45 34.9264 34.9264 45 22.5 45C10.0736 45 0 34.9264 0 22.5C0 10.0736 10.0736 0 22.5 0C34.9264 0 45 10.0736 45 22.5Z" fill="#50AF95"/>
<path d="M25.2278 18.3941V15.0656H32.81V10H12.2081V15.0656H19.7722V18.3941C13.6218 18.6735 9 19.9004 9 21.3642C9 22.828 13.6279 24.061 19.7722 24.3465V35H25.2459V24.3465C31.3842 24.061 36 22.8341 36 21.3703C36 19.9065 31.3842 18.6795 25.2459 18.3941M25.2459 23.4414C25.0949 23.4414 24.2974 23.5022 22.5332 23.5022C21.1195 23.5022 20.1166 23.4597 19.7782 23.4414C14.3408 23.1985 10.2869 22.2267 10.2869 21.1091C10.2869 19.9915 14.3408 19.0197 19.7782 18.7767V22.4939C20.1347 22.4939 21.1497 22.579 22.5574 22.579C24.243 22.579 25.0888 22.5061 25.2459 22.4939V18.7767C30.6834 19.0197 34.7192 19.9915 34.7192 21.1091C34.7192 22.2267 30.6713 23.1985 25.2459 23.4414Z" fill="white"/>
</svg>
