<svg width="138" height="138" viewBox="0 0 138 138" fill="none" xmlns="http://www.w3.org/2000/svg">
<circle cx="86.312" cy="51.0147" r="34.9214" transform="rotate(-9.32939 86.312 51.0147)" fill="#26A17B"/>
<path d="M91.0305 44.4436L90.1354 38.9955L102.837 36.9089L101.474 28.6174L66.9638 34.2869L68.3259 42.5784L80.9967 40.4968L81.8917 45.9449C71.6643 48.0948 64.2521 51.375 64.6457 53.7709C65.0393 56.1669 73.1231 56.9116 83.4923 55.688L86.3571 73.126L95.5262 71.6196L92.6614 54.1816C102.867 52.0251 110.269 48.7467 109.875 46.3507C109.482 43.9547 101.42 43.2167 91.0608 44.4386M92.4181 52.7003C92.1651 52.7419 90.8455 53.0607 87.8903 53.5462C85.5221 53.9353 83.8307 54.1417 83.2591 54.205C74.0854 55.3036 67.0333 54.8285 66.7328 52.9992C66.4322 51.1699 72.9617 48.4636 82.0047 46.5696L83.0043 52.654C83.6014 52.5559 85.3245 52.4158 87.6826 52.0284C90.5061 51.5645 91.9034 51.2125 92.1633 51.1494L91.1637 45.065C100.337 43.9663 107.359 44.4463 107.66 46.2757C107.96 48.1049 101.441 50.8096 92.4181 52.7003Z" fill="white"/>
<g filter="url(#filter0_b_287_1679)">
<circle cx="69.0477" cy="69.0181" r="59.8653" transform="rotate(-9.32939 69.0477 69.0181)" fill="#1E1E1E" fill-opacity="0.8"/>
</g>
<circle cx="69.0464" cy="69.0179" r="34.9214" transform="rotate(-9.32939 69.0464 69.0179)" fill="#26A17B"/>
<path d="M73.7648 62.4465L72.8698 56.9983L85.5709 54.9118L84.2087 46.6203L49.6982 52.2898L51.0603 60.5813L63.7311 58.4997L64.6261 63.9478C54.3987 66.0977 46.9865 69.3778 47.3801 71.7738C47.7737 74.1698 55.8575 74.9144 66.2267 73.6908L69.0915 91.1288L78.2606 89.6225L75.3958 72.1845C85.6014 70.028 93.0034 66.7495 92.6098 64.3535C92.2162 61.9576 84.1543 61.2195 73.7952 62.4415M75.1525 70.7032C74.8994 70.7447 73.5799 71.0636 70.6247 71.5491C68.2565 71.9381 66.5651 72.1445 65.9935 72.2078C56.8198 73.3065 49.7677 72.8314 49.4671 71.0021C49.1666 69.1728 55.6961 66.4665 64.7391 64.5725L65.7387 70.6569C66.3358 70.5588 68.0589 70.4187 70.4169 70.0313C73.2405 69.5674 74.6378 69.2153 74.8977 69.1522L73.8981 63.0678C83.0718 61.9691 90.0935 62.4492 90.3941 64.2785C90.6946 66.1078 84.1752 68.8125 75.1525 70.7032Z" fill="white"/>
<defs>
<filter id="filter0_b_287_1679" x="-3.82812" y="-3.85638" width="145.75" height="145.749" filterUnits="userSpaceOnUse" color-interpolation-filters="sRGB">
<feFlood flood-opacity="0" result="BackgroundImageFix"/>
<feGaussianBlur in="BackgroundImageFix" stdDeviation="6.5"/>
<feComposite in2="SourceAlpha" operator="in" result="effect1_backgroundBlur_287_1679"/>
<feBlend mode="normal" in="SourceGraphic" in2="effect1_backgroundBlur_287_1679" result="shape"/>
</filter>
</defs>
</svg>
