<svg width="45" height="45" viewBox="0 0 45 45" fill="none" xmlns="http://www.w3.org/2000/svg">
<path d="M45 22.5C45 34.9264 34.9264 45 22.5 45C10.0736 45 0 34.9264 0 22.5C0 10.0736 10.0736 0 22.5 0C34.9264 0 45 10.0736 45 22.5Z" fill="#005DFF"/>
<path d="M23.0076 12.7168C26.1831 12.7168 28.7574 11.2132 28.7574 9.35839C28.7574 7.5036 26.1831 6 23.0076 6C19.8321 6 17.2578 7.5036 17.2578 9.35839C17.2578 11.2132 19.8321 12.7168 23.0076 12.7168Z" fill="white"/>
<path d="M23.0076 38C26.1831 38 28.7574 36.4964 28.7574 34.6416C28.7574 32.7868 26.1831 31.2832 23.0076 31.2832C19.8321 31.2832 17.2578 32.7868 17.2578 34.6416C17.2578 36.4964 19.8321 38 23.0076 38Z" fill="white"/>
<path d="M9.19607 14.0015C10.7854 11.2418 13.3674 9.75588 14.9676 10.6812C16.5677 11.6065 16.5949 14.6002 14.9676 17.3599C13.3403 20.1195 10.7962 21.6055 9.19607 20.6747C7.59589 19.744 7.60674 16.7611 9.19607 14.0015Z" fill="white"/>
<path d="M31.0164 26.6455C32.6057 23.8859 35.1877 22.3999 36.7879 23.3252C38.3881 24.2506 38.4152 27.2388 36.7879 29.9985C35.1606 32.7581 32.6166 34.2441 31.0164 33.3188C29.4162 32.3935 29.4271 29.4052 31.0164 26.6455Z" fill="white"/>
<path d="M9.21866 23.3256C10.8188 22.3948 13.4063 23.8699 14.9956 26.6404C16.5849 29.411 16.5686 32.3883 14.9685 33.3191C13.3683 34.2499 10.7863 32.7748 9.19697 29.9988C7.60764 27.2228 7.61848 24.2509 9.21866 23.3256Z" fill="white"/>
<path d="M31.0398 10.6813C32.64 9.75601 35.222 11.2256 36.8113 14.0016C38.4006 16.7776 38.3898 19.7495 36.8113 20.6749C35.2328 21.6002 32.6292 20.1306 31.0398 17.36C29.4505 14.5895 29.4396 11.5958 31.0398 10.6813Z" fill="white"/>
</svg>
