<svg width="45" height="45" viewBox="0 0 45 45" fill="none" xmlns="http://www.w3.org/2000/svg">
<path d="M45 22.5C45 34.9264 34.9264 45 22.5 45C10.0736 45 0 34.9264 0 22.5C0 10.0736 10.0736 0 22.5 0C34.9264 0 45 10.0736 45 22.5Z" fill="#2775CA"/>
<path d="M29.5973 26.0332C29.5973 22.4995 27.5026 21.2798 23.3066 20.759C20.3142 20.3503 19.7157 19.5394 19.7157 18.1219C19.7157 16.7045 20.7175 15.854 22.7081 15.854C24.5036 15.854 25.5055 16.4606 26.0064 17.9769C26.0571 18.1236 26.151 18.251 26.2755 18.3418C26.4 18.4326 26.5491 18.4824 26.7025 18.4845H28.3028C28.3965 18.4915 28.4906 18.4778 28.5787 18.4444C28.6667 18.411 28.7465 18.3587 28.8127 18.291C28.8788 18.2234 28.9297 18.142 28.9619 18.0525C28.994 17.963 29.0066 17.8674 28.9989 17.7725V17.6736C28.8083 16.5767 28.2645 15.5748 27.4523 14.8245C26.6401 14.0742 25.6054 13.6178 24.5101 13.5268V11.0677C24.5101 10.659 24.2109 10.3557 23.71 10.2568H22.2137C21.8169 10.2568 21.5177 10.5601 21.4201 11.0677V13.3884C18.4211 13.7971 16.528 15.8211 16.528 18.3461C16.528 21.6886 18.5187 23.0005 22.7147 23.5082C25.5055 24.0092 26.4032 24.6157 26.4032 26.2375C26.4032 27.8594 25.011 28.9669 23.1115 28.9669C20.5093 28.9669 19.6181 27.8594 19.3188 26.3298C19.2891 26.1632 19.2037 26.0119 19.0769 25.9015C18.9502 25.7911 18.7898 25.7282 18.6228 25.7233H16.9249C16.8311 25.7163 16.737 25.73 16.649 25.7634C16.561 25.7968 16.4811 25.8491 16.415 25.9168C16.3488 25.9845 16.2979 26.0659 16.2658 26.1554C16.2336 26.2449 16.221 26.3404 16.2288 26.4353V26.5342C16.6256 29.0658 18.2194 30.8854 21.5177 31.393V33.8192C21.5177 34.2279 21.8169 34.5312 22.3113 34.6301H23.8076C24.2109 34.6301 24.5101 34.3268 24.6077 33.8192V31.3996C27.6002 30.892 29.5973 28.7626 29.5973 26.0332Z" fill="white"/>
<path d="M17.9182 36.6541C16.0702 35.9799 14.3726 34.9408 12.9238 33.5969C11.475 32.2531 10.3037 30.6313 9.47773 28.8254C8.6518 27.0196 8.18768 25.0656 8.11225 23.0766C8.03682 21.0877 8.35158 19.1033 9.03831 17.2386C9.77406 15.1682 10.9513 13.2877 12.4862 11.7311C14.021 10.1745 15.8757 8.98008 17.9182 8.23293C18.1096 8.14945 18.2702 8.00719 18.3776 7.82623C18.485 7.64526 18.5336 7.43471 18.5167 7.22425V5.80682C18.53 5.62203 18.4766 5.43862 18.3665 5.29069C18.2565 5.14275 18.0971 5.04035 17.9182 5.00251C17.7767 4.98997 17.635 5.0247 17.5148 5.1014C13.8826 6.27276 10.7123 8.58478 8.46244 11.703C6.21262 14.8212 5 18.5839 5 22.4468C5 26.3097 6.21262 30.0724 8.46244 33.1906C10.7123 36.3088 13.8826 38.6208 17.5148 39.7922C17.5986 39.8453 17.6938 39.8771 17.7924 39.8848C17.8909 39.8925 17.9898 39.8758 18.0806 39.8363C18.1715 39.7968 18.2515 39.7355 18.3138 39.6578C18.3761 39.5801 18.419 39.4882 18.4386 39.39C18.5362 39.2912 18.5362 39.1857 18.5362 38.9813V37.5705C18.5051 37.3814 18.4337 37.2014 18.327 37.0431C18.2202 36.8849 18.0807 36.7521 17.9182 36.6541ZM28.4959 5.1014C28.4132 5.05229 28.3202 5.02381 28.2245 5.01828C28.1288 5.01276 28.0332 5.03036 27.9455 5.06963C27.8578 5.10891 27.7806 5.16873 27.7202 5.24417C27.6598 5.31961 27.618 5.40851 27.5982 5.50355C27.4941 5.60904 27.4941 5.70793 27.4941 5.9123V7.32314C27.509 7.52791 27.5708 7.72633 27.6747 7.90259C27.7786 8.07886 27.9217 8.22809 28.0926 8.33842C30.9528 9.41742 33.419 11.357 35.1604 13.8971C36.9018 16.4371 37.8351 19.4561 37.8351 22.549C37.8351 25.6419 36.9018 28.6609 35.1604 31.2009C33.419 33.7409 30.9528 35.6805 28.0926 36.7596C27.9012 36.843 27.7405 36.9853 27.6331 37.1663C27.5257 37.3472 27.4771 37.5578 27.4941 37.7682V39.1857C27.4805 39.3713 27.5337 39.5556 27.6436 39.7046C27.7536 39.8536 27.9131 39.9573 28.0926 39.9966C28.2352 40.0121 28.3785 39.9746 28.4959 39.8911C32.1281 38.7054 35.2956 36.3826 37.5425 33.2568C39.7895 30.131 41 26.3635 41 22.4962C41 18.629 39.7895 14.8615 37.5425 11.7357C35.2956 8.60991 32.1281 6.28708 28.4959 5.1014Z" fill="white"/>
</svg>
