<svg width="35" height="35" viewBox="0 0 35 35" fill="none" xmlns="http://www.w3.org/2000/svg">
<path d="M35 17.5C35 27.165 27.165 35 17.5 35C7.83502 35 0 27.165 0 17.5C0 7.83502 7.83502 0 17.5 0C27.165 0 35 7.83502 35 17.5Z" fill="#50AF95"/>
<path d="M19.6216 14.3066V11.7177H25.5189V7.77783H9.49519V11.7177H15.3784V14.3066C10.5948 14.5239 7 15.4781 7 16.6166C7 17.7552 10.5995 18.7142 15.3784 18.9362V27.2223H19.6357V18.9362C24.4099 18.7142 28 17.7599 28 16.6214C28 15.4829 24.4099 14.5286 19.6357 14.3066M19.6357 18.2323C19.5182 18.2323 18.898 18.2795 17.5258 18.2795C16.4263 18.2795 15.6462 18.2465 15.3831 18.2323C11.1539 18.0433 8.0009 17.2875 8.0009 16.4182C8.0009 15.549 11.1539 14.7931 15.3831 14.6042V17.4953C15.6603 17.4953 16.4498 17.5615 17.5446 17.5615C18.8557 17.5615 19.5135 17.5048 19.6357 17.4953V14.6042C23.8649 14.7931 27.0038 15.549 27.0038 16.4182C27.0038 17.2875 23.8555 18.0433 19.6357 18.2323Z" fill="white"/>
</svg>
