<?xml version="1.0" encoding="UTF-8"?>
<!DOCTYPE svg PUBLIC "-//W3C//DTD SVG 1.1//EN" "http://www.w3.org/Graphics/SVG/1.1/DTD/svg11.dtd">
<svg xmlns="http://www.w3.org/2000/svg" version="1.1" width="79px" height="74px" style="shape-rendering:geometricPrecision; text-rendering:geometricPrecision; image-rendering:optimizeQuality; fill-rule:evenodd; clip-rule:evenodd" xmlns:xlink="http://www.w3.org/1999/xlink">
<g><path style="opacity:0.14" fill="#fefffe" d="M -0.5,56.5 C -0.5,55.5 -0.5,54.5 -0.5,53.5C 13.9345,37.8956 28.6011,22.3956 43.5,7C 45.3668,6.28885 46.8668,6.78885 48,8.5C 49.9346,14.8039 51.768,21.1373 53.5,27.5C 53.1012,29.1966 52.6012,30.8632 52,32.5C 43.1667,42 34.3333,51.5 25.5,61C 23.8632,61.6012 22.1966,62.1012 20.5,62.5C 13.189,61.2587 6.18902,59.2587 -0.5,56.5 Z"/></g>
<g><path style="opacity:0.135" fill="#fefffe" d="M 54.5,45.5 C 56.1439,45.2865 57.6439,45.6198 59,46.5C 61,53.1667 63,59.8333 65,66.5C 65.7429,68.4406 65.5762,70.2739 64.5,72C 55.8093,71.2034 47.3093,69.3701 39,66.5C 38.3653,64.3646 38.6986,62.3646 40,60.5C 45.0365,55.6313 49.8698,50.6313 54.5,45.5 Z"/></g>
</svg>
